<svg id="Capa_1" data-name="Capa 1" xmlns="http://www.w3.org/2000/svg" viewBox="0 0 368.23 425.2"><defs><style>.cls-1{fill:#cb2026;}.cls-1,.cls-2{stroke:#231f20;stroke-miterlimit:10;}.cls-2{fill:#e9c61d;}</style></defs><title>Mesa de trabajo 1</title><path class="cls-1" d="M140.31,106.3c0-58.71,43.8-106.3,43.8-106.3s43.8,47.59,43.8,106.3-43.8,106.3-43.8,106.3S140.31,165,140.31,106.3Z"/><path class="cls-1" d="M70.16,197.38C19.31,168,0,106.3,0,106.3s63.12-14.14,114,15.21,70.16,91.09,70.16,91.09S121,226.74,70.16,197.38Z"/><path class="cls-1" d="M114,303.68C63.12,333,0,318.9,0,318.9s19.31-61.73,70.16-91.09,114-15.21,114-15.21S164.8,274.33,114,303.68Z"/><path class="cls-1" d="M227.92,318.9c0,58.71-43.8,106.3-43.8,106.3s-43.8-47.59-43.8-106.3,43.8-106.3,43.8-106.3S227.92,260.19,227.92,318.9Z"/><path class="cls-1" d="M298.08,227.81c50.84,29.35,70.16,91.09,70.16,91.09s-63.12,14.14-114-15.21-70.16-91.09-70.16-91.09S247.23,198.46,298.08,227.81Z"/><path class="cls-1" d="M254.27,121.51c50.84-29.35,114-15.21,114-15.21S348.92,168,298.08,197.38s-114,15.21-114,15.21S203.43,150.87,254.27,121.51Z"/><circle class="cls-2" cx="184.12" cy="212.6" r="22.55"/></svg>
