<?xml version="1.0" encoding="utf-8"?>
<!-- Generator: Adobe Illustrator 21.0.2, SVG Export Plug-In . SVG Version: 6.00 Build 0)  -->
<svg version="1.1" id="Capa_1" xmlns="http://www.w3.org/2000/svg" xmlns:xlink="http://www.w3.org/1999/xlink" x="0px" y="0px"
	 viewBox="0 0 221.1 91.8" style="enable-background:new 0 0 221.1 91.8;" xml:space="preserve">
<style type="text/css">
	.st0{fill-rule:evenodd;clip-rule:evenodd;fill:#B0B256;}
	.st1{fill:#495E67;}
	.st2{fill-rule:evenodd;clip-rule:evenodd;fill:#014262;}
	.st3{fill:#0081BA;}
	.st4{fill:#F8B133;stroke:#005980;}
	.st5{fill:#FFFFFF;}
	.st6{fill:#005980;}
	.st7{fill:#FFFFFF;stroke:#005980;stroke-width:0.9747;}
	.st8{fill-rule:evenodd;clip-rule:evenodd;fill:#1D1D1B;}
	.st9{fill-rule:evenodd;clip-rule:evenodd;fill:#CECEB8;}
	.st10{fill-rule:evenodd;clip-rule:evenodd;fill:#BD1622;}
	.st11{fill-rule:evenodd;clip-rule:evenodd;fill:#B1B28F;}
</style>
<g id="Automóvil">
</g>
<rect x="-610.2" y="111.4" class="st0" width="550" height="199.1"/>
<path class="st1" d="M-60.2,291.3c-0.2,0-0.5,0-0.7,0c-9.9,0-9.9-7.6-19.8-7.6c-9.9,0-9.9,7.6-19.8,7.6c-9.9,0-9.9-7.6-19.8-7.6
	c-9.9,0-9.9,7.6-19.8,7.6c-9.9,0-9.9-7.6-19.8-7.6s-9.9,7.6-19.8,7.6c-9.9,0-9.9-7.6-19.8-7.6c-9.9,0-9.9,7.6-19.8,7.6
	c-9.9,0-9.9-7.6-19.8-7.6c-9.4,0-9.9,6.8-18.3,7.5c-8.5-0.7-9-7.5-18.3-7.5c-9.9,0-9.9,7.6-19.8,7.6c-9.9,0-9.9-7.6-19.8-7.6
	c-9.9,0-9.9,7.6-19.8,7.6c-9.9,0-9.9-7.6-19.8-7.6c-9.9,0-9.9,7.6-19.8,7.6c-9.9,0-9.9-7.6-19.8-7.6c-9.9,0-9.9,7.6-19.8,7.6
	c-9.9,0-9.9-7.6-19.8-7.6c-9.9,0-9.9,7.6-19.8,7.6c-9.9,0-9.9-7.6-19.8-7.6c-9.9,0-9.9,7.6-19.8,7.6c-9.9,0-9.9-7.6-19.8-7.6
	c-9.9,0-9.9,7.6-19.8,7.6c-9.9,0-9.9-7.6-19.8-7.6c-9.9,0-9.9,7.6-19.8,7.6c-9.9,0-9.9-7.6-19.8-7.6c-9.4,0-9.9,6.8-18.3,7.5v24.4
	h550V291.3z"/>
<g>
	<g>
		<g>
			<polyline class="st2" points="-596.3,260.8 -575.2,260.3 -535.7,262.7 -439.9,261.9 -402.6,266.4 -398.2,256.5 -404.4,231.5 
				-575.6,231.5 			"/>
			<path class="st3" d="M-523.6,243.9c0,0-1.2-27.8-78.5-21.5l5.5,26c0,0-6.7,9-1.8,12.5l23.3-0.7c-0.3-1.4-0.4-2.8-0.4-4.2
				c0-11.3,9.2-20.5,20.5-20.5c11.3,0,20.5,9.2,20.5,20.5c0,2.3-0.4,4.6-1.1,6.6l95.7-0.8c-0.5-1.8-0.8-3.8-0.8-5.8
				c0-11.3,9.2-20.5,20.5-20.5c11.3,0,20.5,9.2,20.5,20.5c0,3.8-1,7.4-2.8,10.4l5.6,0.7l-1.2-10.7l-0.6-9l6.1-18.8
				c0,0,9.1-4.5,9.1-14.3C-383.6,214.4-472.5,210.8-523.6,243.9z"/>
			<ellipse class="st4" cx="-601.2" cy="228.9" rx="3.5" ry="2"/>
			<ellipse class="st4" cx="-600.2" cy="232.3" rx="3.5" ry="2"/>
			<ellipse class="st4" cx="-599.2" cy="235.5" rx="3.5" ry="2"/>
			<path class="st5" d="M-533.7,260.8h88.8c0,0-7.5-7.4,0.4-11.1c0,0-9.7-1.1-6.8,6.8L-533.7,260.8z"/>
			<path class="st3" d="M-450.6,218.8l-6.7-24.2l8.8,0.8c0,0-61.7-41.1-122,29.7l28.6,7.2c0,0-7.9-39.4,79.1-37.6L-450.6,218.8z"/>
			<path class="st5" d="M-391.7,217.6c0,0-71.4-4.4-131.1,28.5c0,0,60.5-28.5,125.4-26.8L-391.7,217.6z"/>
			<path class="st5" d="M-524.6,245.5c0,0-1-18.9-45.1-21.8C-569.7,223.7-534.1,227.4-524.6,245.5z"/>
			<path class="st6" d="M-457,255.7c0,0-0.7-0.9,0.2-5.4l-79.9,5.8L-457,255.7z"/>
			<ellipse class="st7" cx="-548.2" cy="215.7" rx="4" ry="5.8"/>
			<polyline class="st3" points="-458.2,220.3 -465.3,214.4 -463.4,208.1 -471.3,221.5 -466.3,216.8 -459.6,220.9 			"/>
			<path class="st6" d="M-497.1,225l-1.7-13.6c1.2-2.1,4.8-0.6,4.8-0.6l3.6,13.5l15.2-1.6h0.4c-25,4.5-48.5,19.6-48.5,19.6
				c-2.2-11-11.7-13.4-11.7-13.4L-497.1,225z"/>
			<path class="st3" d="M-572.9,222.7c0,0-6.3-18.7-13.7-23.5c0,0,9.5,11,12.1,23.5H-572.9z"/>
			<ellipse class="st3" cx="-586.3" cy="199.2" rx="1.2" ry="1.8"/>
			<path class="st6" d="M-394.7,228.6c0,0-10.8-2.4-45.3,2.4c0,0,41.8-2.2,41.2,0.3c-0.6,2.6-16.4,2.3-16.4,2.3s16,0.6,14.8,3.3
				c-1.3,2.7-6.7,2.1-6.7,2.1l7.5,3.9c0,0,3.8-8.9,4.9-14"/>
			<path class="st6" d="M-597.9,225.8c0,0,25.6-5.6,51.8,9.4c0,0-32.3-1.9-48.9,7.5c0,0,8.6-9.4,31.4-10.3c0,0-15.7-4.1-32.2,1.3
				c0,0,1.9-4.5,25-4.9C-570.7,228.8-586.9,224.3-597.9,225.8z"/>
			<path class="st6" d="M-455.2,193.2c0,0-69.2-5.3-82.3,21C-537.5,214.2-532.4,184.9-455.2,193.2z"/>
		</g>
		<path class="st4" d="M-387.1,221.1c2.4-3.6,3.2-5.7,1.5-5.8c-1.9,0-5.7,2.9-8.1,6.5c-2.4,3.6-2.2,6.9-0.6,6.5
			C-392.7,227.9-389.5,224.7-387.1,221.1z"/>
	</g>
	<g>
		<g>
			<ellipse class="st8" cx="-418.1" cy="255.2" rx="19.2" ry="19.3"/>
			<ellipse class="st9" cx="-418.1" cy="255.2" rx="13.2" ry="13.3"/>
			<g>
				<path class="st10" d="M-417.1,245.5c-0.5-3.9-1.4-3.9-1.9,0c-0.5,3.9-4.1,6.5-7.9,5.8c-3.8-0.7-4.1,0.1-0.6,1.8
					c3.5,1.7,4.8,5.9,3,9.4c-1.8,3.4-1.1,4,1.6,1.1c2.7-2.8,7-2.8,9.7,0c2.7,2.8,3.4,2.3,1.5-1.1c-1.8-3.4-0.5-7.7,3-9.4
					c3.5-1.7,3.2-2.5-0.6-1.8C-413.1,251.9-416.6,249.3-417.1,245.5z"/>
			</g>
			<ellipse class="st11" cx="-418.1" cy="255.2" rx="4.5" ry="4.5"/>
		</g>
	</g>
	<g>
		<g>
			<ellipse class="st8" cx="-552.2" cy="256.1" rx="19.2" ry="19.3"/>
			<ellipse class="st9" cx="-552.2" cy="256.1" rx="13.2" ry="13.3"/>
			<g>
				<path class="st10" d="M-551.2,246.4c-0.5-3.9-1.4-3.9-1.9,0c-0.5,3.9-4.1,6.5-7.9,5.8c-3.8-0.7-4.1,0.1-0.6,1.8
					c3.5,1.7,4.8,5.9,3,9.4c-1.8,3.4-1.1,4,1.6,1.1c2.7-2.8,7-2.8,9.7,0c2.7,2.8,3.4,2.3,1.5-1.1c-1.8-3.4-0.5-7.7,3-9.4
					c3.5-1.7,3.2-2.5-0.6-1.8C-547.2,252.8-550.7,250.2-551.2,246.4z"/>
			</g>
			<ellipse class="st11" cx="-552.2" cy="256.1" rx="4.5" ry="4.5"/>
		</g>
	</g>
</g>
<rect x="-18.2" y="130.4" class="st0" width="550" height="199.1"/>
<path class="st1" d="M531.8,379.7c-0.2,0-0.5,0-0.7,0c-9.9,0-9.9-7.6-19.8-7.6c-9.9,0-9.9,7.6-19.8,7.6c-9.9,0-9.9-7.6-19.8-7.6
	c-9.9,0-9.9,7.6-19.8,7.6c-9.9,0-9.9-7.6-19.8-7.6c-9.9,0-9.9,7.6-19.8,7.6c-9.9,0-9.9-7.6-19.8-7.6c-9.9,0-9.9,7.6-19.8,7.6
	c-9.9,0-9.9-7.6-19.8-7.6c-9.4,0-9.9,6.8-18.3,7.5c-8.5-0.7-9-7.5-18.3-7.5c-9.9,0-9.9,7.6-19.8,7.6c-9.9,0-9.9-7.6-19.8-7.6
	c-9.9,0-9.9,7.6-19.8,7.6c-9.9,0-9.9-7.6-19.8-7.6c-9.9,0-9.9,7.6-19.8,7.6c-9.9,0-9.9-7.6-19.8-7.6c-9.9,0-9.9,7.6-19.8,7.6
	c-9.9,0-9.9-7.6-19.8-7.6c-9.9,0-9.9,7.6-19.8,7.6c-9.9,0-9.9-7.6-19.8-7.6c-9.9,0-9.9,7.6-19.8,7.6c-9.9,0-9.9-7.6-19.8-7.6
	s-9.9,7.6-19.8,7.6c-9.9,0-9.9-7.6-19.8-7.6c-9.9,0-9.9,7.6-19.8,7.6c-9.9,0-9.9-7.6-19.8-7.6c-9.4,0-9.9,6.8-18.3,7.5v24.4h550
	V379.7z"/>
<g>
	<g>
		<g>
			<polyline class="st2" points="8.4,77.2 29.5,76.7 69,79.1 164.7,78.3 202.1,82.8 206.5,72.9 200.3,47.9 29,47.9 			"/>
			<path class="st3" d="M81.1,60.3c0,0-1.2-27.8-78.5-21.5l5.5,26c0,0-6.7,9-1.8,12.5l23.3-0.7c-0.3-1.4-0.4-2.8-0.4-4.2
				c0-11.3,9.2-20.5,20.5-20.5c11.3,0,20.5,9.2,20.5,20.5c0,2.3-0.4,4.6-1.1,6.6l95.7-0.8c-0.5-1.8-0.8-3.8-0.8-5.8
				c0-11.3,9.2-20.5,20.5-20.5c11.3,0,20.5,9.2,20.5,20.5c0,3.8-1,7.4-2.8,10.4l5.6,0.7l-1.2-10.7l-0.6-9l6.1-18.8
				c0,0,9.1-4.5,9.1-14.3C221.1,30.8,132.2,27.2,81.1,60.3z"/>
			<ellipse class="st4" cx="3.5" cy="45.3" rx="3.5" ry="2"/>
			<ellipse class="st4" cx="4.5" cy="48.7" rx="3.5" ry="2"/>
			<ellipse class="st4" cx="5.5" cy="51.9" rx="3.5" ry="2"/>
			<path class="st5" d="M71,77.2h88.8c0,0-7.5-7.4,0.4-11.1c0,0-9.7-1.1-6.8,6.8L71,77.2z"/>
			<path class="st3" d="M154.1,35.2l-6.7-24.2l8.8,0.8c0,0-61.7-41.1-122,29.7l28.6,7.2c0,0-7.9-39.4,79.1-37.6L154.1,35.2z"/>
			<path class="st5" d="M213,34c0,0-71.4-4.4-131.1,28.5c0,0,60.5-28.5,125.4-26.8L213,34z"/>
			<path class="st5" d="M80,61.9c0,0-1-18.9-45.1-21.8C35,40.1,70.6,43.8,80,61.9z"/>
			<path class="st6" d="M147.7,72.1c0,0-0.7-0.9,0.2-5.4L68,72.5L147.7,72.1z"/>
			<ellipse class="st7" cx="56.4" cy="32.1" rx="4" ry="5.8"/>
			<polyline class="st3" points="146.5,36.7 139.4,30.8 141.2,24.5 133.3,37.9 138.4,33.2 145.1,37.3 			"/>
			<path class="st6" d="M107.6,41.4l-1.7-13.6c1.2-2.1,4.8-0.6,4.8-0.6l3.6,13.5l15.2-1.6h0.4c-25,4.5-48.5,19.6-48.5,19.6
				c-2.2-11-11.7-13.4-11.7-13.4L107.6,41.4z"/>
			<path class="st3" d="M31.7,39.1c0,0-6.3-18.7-13.7-23.5c0,0,9.5,11,12.1,23.5H31.7z"/>
			<ellipse class="st3" cx="18.4" cy="15.6" rx="1.2" ry="1.8"/>
			<path class="st6" d="M209.9,45c0,0-10.8-2.4-45.3,2.4c0,0,41.8-2.2,41.2,0.3c-0.6,2.6-16.4,2.3-16.4,2.3s16,0.6,14.8,3.3
				c-1.3,2.7-6.7,2.1-6.7,2.1l7.5,3.9c0,0,3.8-8.9,4.9-14"/>
			<path class="st6" d="M6.7,42.2c0,0,25.6-5.6,51.8,9.4c0,0-32.3-1.9-48.9,7.5c0,0,8.6-9.4,31.4-10.3c0,0-15.7-4.1-32.2,1.3
				c0,0,1.9-4.5,25-4.9C33.9,45.2,17.8,40.7,6.7,42.2z"/>
			<path class="st6" d="M149.5,9.6c0,0-69.2-5.3-82.3,21C67.2,30.6,72.3,1.3,149.5,9.6z"/>
		</g>
		<path class="st4" d="M217.6,37.5c2.4-3.6,3.2-5.7,1.5-5.8c-1.9,0-5.7,2.9-8.1,6.5c-2.4,3.6-2.2,6.9-0.6,6.5
			C211.9,44.3,215.2,41.1,217.6,37.5z"/>
	</g>
	<g>
		<g>
			<ellipse class="st8" cx="186.6" cy="71.6" rx="19.2" ry="19.3"/>
			<ellipse class="st9" cx="186.6" cy="71.6" rx="13.2" ry="13.3"/>
			<g>
				<path class="st10" d="M187.5,61.9c-0.5-3.9-1.4-3.9-1.9,0c-0.5,3.9-4.1,6.5-7.9,5.8c-3.8-0.7-4.1,0.1-0.6,1.8
					c3.5,1.7,4.8,5.9,3,9.4c-1.8,3.4-1.1,4,1.6,1.1c2.7-2.8,7-2.8,9.7,0c2.7,2.8,3.4,2.3,1.5-1.1c-1.8-3.4-0.5-7.7,3-9.4
					c3.5-1.7,3.2-2.5-0.6-1.8C191.6,68.3,188,65.7,187.5,61.9z"/>
			</g>
			<ellipse class="st11" cx="186.6" cy="71.6" rx="4.5" ry="4.5"/>
		</g>
	</g>
	<g>
		<g>
			<ellipse class="st8" cx="52.5" cy="72.5" rx="19.2" ry="19.3"/>
			<ellipse class="st9" cx="52.5" cy="72.5" rx="13.2" ry="13.3"/>
			<g>
				<path class="st10" d="M53.4,62.8c-0.5-3.9-1.4-3.9-1.9,0c-0.5,3.9-4.1,6.5-7.9,5.8c-3.8-0.7-4.1,0.1-0.6,1.8
					c3.5,1.7,4.8,5.9,3,9.4c-1.8,3.4-1.1,4,1.6,1.1c2.7-2.8,7-2.8,9.7,0c2.7,2.8,3.4,2.3,1.5-1.1c-1.8-3.4-0.5-7.7,3-9.4
					c3.5-1.7,3.2-2.5-0.6-1.8C57.5,69.2,53.9,66.6,53.4,62.8z"/>
			</g>
			<ellipse class="st11" cx="52.5" cy="72.5" rx="4.5" ry="4.5"/>
		</g>
	</g>
</g>
<path class="st4" d="M512.8,33.7c2.4-3.6,3.2-5.7,1.5-5.8c-1.9,0-5.7,2.9-8.1,6.5c-2.4,3.6-2.2,6.9-0.6,6.5
	C507.1,40.5,510.4,37.3,512.8,33.7z"/>
<g>
	<g>
		<ellipse class="st8" cx="330.8" cy="62.5" rx="19.2" ry="19.3"/>
		<ellipse class="st9" cx="330.8" cy="62.5" rx="13.2" ry="13.3"/>
		<g>
			<path class="st10" d="M331.8,52.7c-0.5-3.9-1.4-3.9-1.9,0c-0.5,3.9-4.1,6.5-7.9,5.8c-3.8-0.7-4.1,0.1-0.6,1.8
				c3.5,1.7,4.8,5.9,3,9.4c-1.8,3.4-1.1,4,1.6,1.1c2.7-2.8,7-2.8,9.7,0c2.7,2.8,3.4,2.3,1.5-1.1c-1.8-3.4-0.5-7.7,3-9.4
				c3.5-1.7,3.2-2.5-0.6-1.8C335.9,59.2,332.3,56.6,331.8,52.7z"/>
		</g>
		<ellipse class="st11" cx="330.8" cy="62.5" rx="4.5" ry="4.5"/>
	</g>
</g>
</svg>
