<?xml version="1.0" encoding="utf-8"?>
<!-- Generator: Adobe Illustrator 21.0.2, SVG Export Plug-In . SVG Version: 6.00 Build 0)  -->
<svg version="1.1" id="Capa_1" xmlns="http://www.w3.org/2000/svg" xmlns:xlink="http://www.w3.org/1999/xlink" x="0px" y="0px"
	 viewBox="0 0 12.1 14.5" style="enable-background:new 0 0 12.1 14.5;" xml:space="preserve">
<style type="text/css">
	.st0{fill-rule:evenodd;clip-rule:evenodd;fill:#B0B256;}
	.st1{fill:#495E67;}
	.st2{fill-rule:evenodd;clip-rule:evenodd;fill:#014262;}
	.st3{fill:#0081BA;}
	.st4{fill:#F8B133;stroke:#005980;}
	.st5{fill:#FFFFFF;}
	.st6{fill:#005980;}
	.st7{fill:#FFFFFF;stroke:#005980;stroke-width:0.9747;}
	.st8{fill-rule:evenodd;clip-rule:evenodd;fill:#1D1D1B;}
	.st9{fill-rule:evenodd;clip-rule:evenodd;fill:#CECEB8;}
	.st10{fill-rule:evenodd;clip-rule:evenodd;fill:#BD1622;}
	.st11{fill-rule:evenodd;clip-rule:evenodd;fill:#B1B28F;}
	.st12{fill-rule:evenodd;clip-rule:evenodd;fill:#7F0034;}
	.st13{fill:#7F0034;}
	.st14{fill:none;stroke:#7F0018;stroke-miterlimit:10;}
	.st15{fill:#FF3300;stroke:#005980;}
</style>
<g id="Automóvil">
</g>
<rect x="-1113.9" y="84.2" class="st0" width="550" height="199.1"/>
<path class="st1" d="M-563.9,264.1c-0.2,0-0.5,0-0.7,0c-9.9,0-9.9-7.6-19.8-7.6c-9.9,0-9.9,7.6-19.8,7.6c-9.9,0-9.9-7.6-19.8-7.6
	c-9.9,0-9.9,7.6-19.8,7.6c-9.9,0-9.9-7.6-19.8-7.6s-9.9,7.6-19.8,7.6c-9.9,0-9.9-7.6-19.8-7.6c-9.9,0-9.9,7.6-19.8,7.6
	c-9.9,0-9.9-7.6-19.8-7.6c-9.4,0-9.9,6.8-18.3,7.5c-8.5-0.7-9-7.5-18.3-7.5c-9.9,0-9.9,7.6-19.8,7.6c-9.9,0-9.9-7.6-19.8-7.6
	c-9.9,0-9.9,7.6-19.8,7.6c-9.9,0-9.9-7.6-19.8-7.6c-9.9,0-9.9,7.6-19.8,7.6c-9.9,0-9.9-7.6-19.8-7.6c-9.9,0-9.9,7.6-19.8,7.6
	c-9.9,0-9.9-7.6-19.8-7.6c-9.9,0-9.9,7.6-19.8,7.6c-9.9,0-9.9-7.6-19.8-7.6c-9.9,0-9.9,7.6-19.8,7.6c-9.9,0-9.9-7.6-19.8-7.6
	s-9.9,7.6-19.8,7.6c-9.9,0-9.9-7.6-19.8-7.6c-9.9,0-9.9,7.6-19.8,7.6c-9.9,0-9.9-7.6-19.8-7.6c-9.4,0-9.9,6.8-18.3,7.5v24.4h550
	V264.1z"/>
<g>
	<g>
		<g>
			<polyline class="st2" points="-1099.9,233.6 -1078.8,233.1 -1039.3,235.5 -943.6,234.6 -906.2,239.2 -901.9,229.2 -908,204.3 
				-1079.3,204.3 			"/>
			<path class="st3" d="M-1027.2,216.7c0,0-1.2-27.8-78.5-21.5l5.5,26c0,0-6.7,9-1.8,12.5l23.3-0.7c-0.3-1.4-0.4-2.8-0.4-4.2
				c0-11.3,9.2-20.5,20.5-20.5c11.3,0,20.5,9.2,20.5,20.5c0,2.3-0.4,4.6-1.1,6.6l95.7-0.8c-0.5-1.8-0.8-3.8-0.8-5.8
				c0-11.3,9.2-20.5,20.5-20.5c11.3,0,20.5,9.2,20.5,20.5c0,3.8-1,7.4-2.8,10.4l5.6,0.7l-1.2-10.7l-0.6-9l6.1-18.8
				c0,0,9.1-4.5,9.1-14.3C-887.2,187.2-976.1,183.6-1027.2,216.7z"/>
			<ellipse class="st4" cx="-1104.8" cy="201.7" rx="3.5" ry="2"/>
			<ellipse class="st4" cx="-1103.8" cy="205.1" rx="3.5" ry="2"/>
			<ellipse class="st4" cx="-1102.8" cy="208.3" rx="3.5" ry="2"/>
			<path class="st5" d="M-1037.3,233.6h88.8c0,0-7.5-7.4,0.4-11.1c0,0-9.7-1.1-6.8,6.8L-1037.3,233.6z"/>
			<path class="st3" d="M-954.2,191.6l-6.7-24.2l8.8,0.8c0,0-61.7-41.1-122,29.7l28.6,7.2c0,0-7.9-39.4,79.1-37.6L-954.2,191.6z"/>
			<path class="st5" d="M-895.3,190.3c0,0-71.4-4.4-131.1,28.5c0,0,60.5-28.5,125.4-26.8L-895.3,190.3z"/>
			<path class="st5" d="M-1028.3,218.3c0,0-1-18.9-45.1-21.8C-1073.4,196.5-1037.8,200.2-1028.3,218.3z"/>
			<path class="st6" d="M-960.6,228.4c0,0-0.7-0.9,0.2-5.4l-79.9,5.8L-960.6,228.4z"/>
			<ellipse class="st7" cx="-1051.9" cy="188.5" rx="4" ry="5.8"/>
			<polyline class="st3" points="-961.8,193.1 -968.9,187.2 -967.1,180.9 -975,194.3 -969.9,189.5 -963.3,193.7 			"/>
			<path class="st6" d="M-1000.7,197.8l-1.7-13.6c1.2-2.1,4.8-0.6,4.8-0.6l3.6,13.5l15.2-1.6h0.4c-25,4.5-48.5,19.6-48.5,19.6
				c-2.2-11-11.7-13.4-11.7-13.4L-1000.7,197.8z"/>
			<path class="st3" d="M-1076.6,195.5c0,0-6.3-18.7-13.7-23.5c0,0,9.5,11,12.1,23.5H-1076.6z"/>
			<ellipse class="st3" cx="-1089.9" cy="172" rx="1.2" ry="1.8"/>
			<path class="st6" d="M-898.4,201.4c0,0-10.8-2.4-45.3,2.4c0,0,41.8-2.2,41.2,0.3c-0.6,2.6-16.4,2.3-16.4,2.3s16,0.6,14.8,3.3
				c-1.3,2.7-6.7,2.1-6.7,2.1l7.5,3.9c0,0,3.8-8.9,4.9-14"/>
			<path class="st6" d="M-1101.6,198.6c0,0,25.6-5.6,51.8,9.4c0,0-32.3-1.9-48.9,7.5c0,0,8.6-9.4,31.4-10.3c0,0-15.7-4.1-32.2,1.3
				c0,0,1.9-4.5,25-4.9C-1074.4,201.6-1090.5,197.1-1101.6,198.6z"/>
			<path class="st6" d="M-958.9,166c0,0-69.2-5.3-82.3,21C-1041.1,187-1036,157.7-958.9,166z"/>
		</g>
		<path class="st4" d="M-890.7,193.9c2.4-3.6,3.2-5.7,1.5-5.8c-1.9,0-5.7,2.9-8.1,6.5c-2.4,3.6-2.2,6.9-0.6,6.5
			C-896.4,200.7-893.1,197.5-890.7,193.9z"/>
	</g>
	<g>
		<g>
			<ellipse class="st8" cx="-921.8" cy="228" rx="19.2" ry="19.3"/>
			<ellipse class="st9" cx="-921.8" cy="228" rx="13.2" ry="13.3"/>
			<g>
				<path class="st10" d="M-920.8,218.3c-0.5-3.9-1.4-3.9-1.9,0c-0.5,3.9-4.1,6.5-7.9,5.8c-3.8-0.7-4.1,0.1-0.6,1.8
					c3.5,1.7,4.8,5.9,3,9.4c-1.8,3.4-1.1,4,1.6,1.1c2.7-2.8,7-2.8,9.7,0c2.7,2.8,3.4,2.3,1.5-1.1c-1.8-3.4-0.5-7.7,3-9.4
					c3.5-1.7,3.2-2.5-0.6-1.8C-916.7,224.7-920.3,222.1-920.8,218.3z"/>
			</g>
			<ellipse class="st11" cx="-921.8" cy="228" rx="4.5" ry="4.5"/>
		</g>
	</g>
	<g>
		<g>
			<ellipse class="st8" cx="-1055.9" cy="228.9" rx="19.2" ry="19.3"/>
			<ellipse class="st9" cx="-1055.9" cy="228.9" rx="13.2" ry="13.3"/>
			<g>
				<path class="st10" d="M-1054.9,219.2c-0.5-3.9-1.4-3.9-1.9,0c-0.5,3.9-4.1,6.5-7.9,5.8c-3.8-0.7-4.1,0.1-0.6,1.8
					c3.5,1.7,4.8,5.9,3,9.4c-1.8,3.4-1.1,4,1.6,1.1c2.7-2.8,7-2.8,9.7,0s3.4,2.3,1.5-1.1c-1.8-3.4-0.5-7.7,3-9.4
					c3.5-1.7,3.2-2.5-0.6-1.8C-1050.8,225.6-1054.4,223-1054.9,219.2z"/>
			</g>
			<ellipse class="st11" cx="-1055.9" cy="228.9" rx="4.5" ry="4.5"/>
		</g>
	</g>
</g>
<rect x="-521.9" y="103.2" class="st0" width="550" height="199.1"/>
<path class="st1" d="M28.1,352.5c-0.2,0-0.5,0-0.7,0c-9.9,0-9.9-7.6-19.8-7.6c-9.9,0-9.9,7.6-19.8,7.6c-9.9,0-9.9-7.6-19.8-7.6
	c-9.9,0-9.9,7.6-19.8,7.6c-9.9,0-9.9-7.6-19.8-7.6s-9.9,7.6-19.8,7.6c-9.9,0-9.9-7.6-19.8-7.6c-9.9,0-9.9,7.6-19.8,7.6
	c-9.9,0-9.9-7.6-19.8-7.6c-9.4,0-9.9,6.8-18.3,7.5c-8.5-0.7-9-7.5-18.3-7.5c-9.9,0-9.9,7.6-19.8,7.6c-9.9,0-9.9-7.6-19.8-7.6
	c-9.9,0-9.9,7.6-19.8,7.6c-9.9,0-9.9-7.6-19.8-7.6c-9.9,0-9.9,7.6-19.8,7.6c-9.9,0-9.9-7.6-19.8-7.6c-9.9,0-9.9,7.6-19.8,7.6
	c-9.9,0-9.9-7.6-19.8-7.6c-9.9,0-9.9,7.6-19.8,7.6c-9.9,0-9.9-7.6-19.8-7.6c-9.9,0-9.9,7.6-19.8,7.6c-9.9,0-9.9-7.6-19.8-7.6
	c-9.9,0-9.9,7.6-19.8,7.6c-9.9,0-9.9-7.6-19.8-7.6c-9.9,0-9.9,7.6-19.8,7.6c-9.9,0-9.9-7.6-19.8-7.6c-9.4,0-9.9,6.8-18.3,7.5v24.4
	h550V352.5z"/>
<g>
	<g>
		<polyline class="st12" points="-495.3,50 -474.2,49.5 -434.7,51.9 -338.9,51 -301.5,55.6 -297.2,45.6 -303.4,20.7 -474.6,20.7 		
			"/>
		<path d="M-422.6,33.1c0,0-1.2-27.8-78.5-21.5l5.5,26c0,0-6.7,9-1.8,12.5l23.3-0.7c-0.3-1.4-0.4-2.8-0.4-4.2
			c0-11.3,9.2-20.5,20.5-20.5c11.3,0,20.5,9.2,20.5,20.5c0,2.3-0.4,4.6-1.1,6.6l95.7-0.8c-0.5-1.8-0.8-3.8-0.8-5.8
			c0-11.3,9.2-20.5,20.5-20.5c11.3,0,20.5,9.2,20.5,20.5c0,3.8-1,7.4-2.8,10.4l5.6,0.7l-1.2-10.7l-0.6-9l6.1-18.8
			c0,0,9.1-4.5,9.1-14.3C-282.6,3.6-371.5,0-422.6,33.1z"/>
		<ellipse class="st4" cx="-500.2" cy="18.1" rx="3.5" ry="2"/>
		<ellipse class="st4" cx="-499.2" cy="21.5" rx="3.5" ry="2"/>
		<ellipse class="st4" cx="-498.2" cy="24.7" rx="3.5" ry="2"/>
		<path class="st5" d="M-432.7,50h88.8c0,0-7.5-7.4,0.4-11.1c0,0-9.7-1.1-6.8,6.8L-432.7,50z"/>
		<path d="M-349.5,8l-6.7-24.2l8.8,0.8c0,0-61.7-41.1-122,29.7l28.6,7.2c0,0-7.9-39.4,79.1-37.6L-349.5,8z"/>
		<path class="st5" d="M-290.7,6.7c0,0-71.4-4.4-131.1,28.5c0,0,60.5-28.5,125.4-26.8L-290.7,6.7z"/>
		<path class="st5" d="M-423.6,34.7c0,0-1-18.9-45.1-21.8C-468.7,12.9-433.1,16.6-423.6,34.7z"/>
		<path class="st13" d="M-356,44.8c0,0-0.7-0.9,0.2-5.4l-79.9,5.8L-356,44.8z"/>
		<ellipse class="st14" cx="-447.2" cy="4.9" rx="4" ry="5.8"/>
		<polyline points="-357.2,9.5 -364.3,3.6 -362.4,-2.7 -370.3,10.7 -365.3,5.9 -358.6,10.1 		"/>
		<path class="st13" d="M-396.1,14.2l-1.7-13.6c1.2-2.1,4.8-0.6,4.8-0.6l3.6,13.5l15.2-1.6h0.4c-25,4.5-48.5,19.6-48.5,19.6
			c-2.2-11-11.7-13.4-11.7-13.4L-396.1,14.2z"/>
		<path d="M-471.9,11.9c0,0-6.3-18.7-13.7-23.5c0,0,9.5,11,12.1,23.5H-471.9z"/>
		<ellipse cx="-485.3" cy="-11.6" rx="1.2" ry="1.8"/>
		<path class="st13" d="M-293.7,17.8c0,0-10.8-2.4-45.3,2.4c0,0,41.8-2.2,41.2,0.3c-0.6,2.6-16.4,2.3-16.4,2.3s16,0.6,14.8,3.3
			c-1.3,2.7-6.7,2.1-6.7,2.1l7.5,3.9c0,0,3.8-8.9,4.9-14"/>
		<path class="st13" d="M-496.9,15c0,0,25.6-5.6,51.8,9.4c0,0-32.3-1.9-48.9,7.5c0,0,8.6-9.4,31.4-10.3c0,0-15.7-4.1-32.2,1.3
			c0,0,1.9-4.5,25-4.9C-469.7,18-485.9,13.5-496.9,15z"/>
		<path class="st13" d="M-354.2-17.6c0,0-69.2-5.3-82.3,21C-436.5,3.4-431.4-25.9-354.2-17.6z"/>
	</g>
	<path class="st4" d="M-286.1,10.3c2.4-3.6,3.2-5.7,1.5-5.8c-1.9,0-5.7,2.9-8.1,6.5c-2.4,3.6-2.2,6.9-0.6,6.5
		C-291.7,17.1-288.5,13.9-286.1,10.3z"/>
	<g>
		<g>
			<ellipse class="st8" cx="-317.1" cy="44.4" rx="19.2" ry="19.3"/>
			<ellipse class="st9" cx="-317.1" cy="44.4" rx="13.2" ry="13.3"/>
			<g>
				<path class="st10" d="M-316.1,34.7c-0.5-3.9-1.4-3.9-1.9,0c-0.5,3.9-4.1,6.5-7.9,5.8c-3.8-0.7-4.1,0.1-0.6,1.8
					c3.5,1.7,4.8,5.9,3,9.4c-1.8,3.4-1.1,4,1.6,1.1c2.7-2.8,7-2.8,9.7,0c2.7,2.8,3.4,2.3,1.5-1.1c-1.8-3.4-0.5-7.7,3-9.4
					c3.5-1.7,3.2-2.5-0.6-1.8C-312.1,41.1-315.6,38.5-316.1,34.7z"/>
			</g>
			<ellipse class="st11" cx="-317.1" cy="44.4" rx="4.5" ry="4.5"/>
		</g>
	</g>
	<g>
		<g>
			<ellipse class="st8" cx="-451.2" cy="45.3" rx="19.2" ry="19.3"/>
			<ellipse class="st9" cx="-451.2" cy="45.3" rx="13.2" ry="13.3"/>
			<g>
				<path class="st10" d="M-450.2,35.6c-0.5-3.9-1.4-3.9-1.9,0c-0.5,3.9-4.1,6.5-7.9,5.8c-3.8-0.7-4.1,0.1-0.6,1.8
					c3.5,1.7,4.8,5.9,3,9.4c-1.8,3.4-1.1,4,1.6,1.1c2.7-2.8,7-2.8,9.7,0c2.7,2.8,3.4,2.3,1.5-1.1c-1.8-3.4-0.5-7.7,3-9.4
					c3.5-1.7,3.2-2.5-0.6-1.8C-446.2,42-449.7,39.4-450.2,35.6z"/>
			</g>
			<ellipse class="st11" cx="-451.2" cy="45.3" rx="4.5" ry="4.5"/>
		</g>
	</g>
</g>
<path class="st15" d="M9.1,6.5c2.4-3.6,3.2-5.7,1.5-5.8C8.8,0.7,5,3.7,2.6,7.3c-2.4,3.6-2.2,6.9-0.6,6.5C3.5,13.3,6.7,10.1,9.1,6.5z
	"/>
<g>
	<g>
		<ellipse class="st8" cx="-172.8" cy="35.2" rx="19.2" ry="19.3"/>
		<ellipse class="st9" cx="-172.8" cy="35.2" rx="13.2" ry="13.3"/>
		<g>
			<path class="st10" d="M-171.9,25.5c-0.5-3.9-1.4-3.9-1.9,0c-0.5,3.9-4.1,6.5-7.9,5.8c-3.8-0.7-4.1,0.1-0.6,1.8
				c3.5,1.7,4.8,5.9,3,9.4c-1.8,3.4-1.1,4,1.6,1.1c2.7-2.8,7-2.8,9.7,0c2.7,2.8,3.4,2.3,1.5-1.1c-1.8-3.4-0.5-7.7,3-9.4
				c3.5-1.7,3.2-2.5-0.6-1.8C-167.8,32-171.3,29.4-171.9,25.5z"/>
		</g>
		<ellipse class="st11" cx="-172.8" cy="35.2" rx="4.5" ry="4.5"/>
	</g>
</g>
</svg>
