<?xml version="1.0" encoding="utf-8"?>
<!-- Generator: Adobe Illustrator 21.0.2, SVG Export Plug-In . SVG Version: 6.00 Build 0)  -->
<svg version="1.1" id="Capa_1" xmlns="http://www.w3.org/2000/svg" xmlns:xlink="http://www.w3.org/1999/xlink" x="0px" y="0px"
	 viewBox="0 0 38.3 38.6" style="enable-background:new 0 0 38.3 38.6;" xml:space="preserve">
<style type="text/css">
	.st0{fill-rule:evenodd;clip-rule:evenodd;fill:#B0B256;}
	.st1{fill:#495E67;}
	.st2{fill-rule:evenodd;clip-rule:evenodd;fill:#014262;}
	.st3{fill:#0081BA;}
	.st4{fill:#F8B133;stroke:#005980;}
	.st5{fill:#FFFFFF;}
	.st6{fill:#005980;}
	.st7{fill:#FFFFFF;stroke:#005980;stroke-width:0.9747;}
	.st8{fill-rule:evenodd;clip-rule:evenodd;fill:#1D1D1B;}
	.st9{fill-rule:evenodd;clip-rule:evenodd;fill:#CECEB8;}
	.st10{fill-rule:evenodd;clip-rule:evenodd;fill:#BD1622;}
	.st11{fill-rule:evenodd;clip-rule:evenodd;fill:#B1B28F;}
</style>
<g id="Automóvil">
</g>
<rect x="-921.9" y="68.2" class="st0" width="550" height="199.1"/>
<path class="st1" d="M-371.9,248.1c-0.2,0-0.5,0-0.7,0c-9.9,0-9.9-7.6-19.8-7.6c-9.9,0-9.9,7.6-19.8,7.6c-9.9,0-9.9-7.6-19.8-7.6
	c-9.9,0-9.9,7.6-19.8,7.6c-9.9,0-9.9-7.6-19.8-7.6s-9.9,7.6-19.8,7.6c-9.9,0-9.9-7.6-19.8-7.6c-9.9,0-9.9,7.6-19.8,7.6
	c-9.9,0-9.9-7.6-19.8-7.6c-9.4,0-9.9,6.8-18.3,7.5c-8.5-0.7-9-7.5-18.3-7.5c-9.9,0-9.9,7.6-19.8,7.6c-9.9,0-9.9-7.6-19.8-7.6
	c-9.9,0-9.9,7.6-19.8,7.6c-9.9,0-9.9-7.6-19.8-7.6c-9.9,0-9.9,7.6-19.8,7.6c-9.9,0-9.9-7.6-19.8-7.6c-9.9,0-9.9,7.6-19.8,7.6
	c-9.9,0-9.9-7.6-19.8-7.6c-9.9,0-9.9,7.6-19.8,7.6c-9.9,0-9.9-7.6-19.8-7.6c-9.9,0-9.9,7.6-19.8,7.6c-9.9,0-9.9-7.6-19.8-7.6
	c-9.9,0-9.9,7.6-19.8,7.6c-9.9,0-9.9-7.6-19.8-7.6c-9.9,0-9.9,7.6-19.8,7.6c-9.9,0-9.9-7.6-19.8-7.6c-9.4,0-9.9,6.8-18.3,7.5v24.4
	h550V248.1z"/>
<g>
	<g>
		<g>
			<polyline class="st2" points="-907.9,217.6 -886.9,217.1 -847.4,219.5 -751.6,218.7 -714.2,223.3 -709.9,213.3 -716.1,188.3 
				-887.3,188.3 			"/>
			<path class="st3" d="M-835.3,200.7c0,0-1.2-27.8-78.5-21.5l5.5,26c0,0-6.7,9-1.8,12.5l23.3-0.7c-0.3-1.4-0.4-2.8-0.4-4.2
				c0-11.3,9.2-20.5,20.5-20.5c11.3,0,20.5,9.2,20.5,20.5c0,2.3-0.4,4.6-1.1,6.6l95.7-0.8c-0.5-1.8-0.8-3.8-0.8-5.8
				c0-11.3,9.2-20.5,20.5-20.5c11.3,0,20.5,9.2,20.5,20.5c0,3.8-1,7.4-2.8,10.4l5.6,0.7l-1.2-10.7l-0.6-9l6.1-18.8
				c0,0,9.1-4.5,9.1-14.3C-695.3,171.2-784.1,167.6-835.3,200.7z"/>
			<ellipse class="st4" cx="-912.9" cy="185.8" rx="3.5" ry="2"/>
			<ellipse class="st4" cx="-911.9" cy="189.1" rx="3.5" ry="2"/>
			<ellipse class="st4" cx="-910.9" cy="192.3" rx="3.5" ry="2"/>
			<path class="st5" d="M-845.4,217.6h88.8c0,0-7.5-7.4,0.4-11.1c0,0-9.7-1.1-6.8,6.8L-845.4,217.6z"/>
			<path class="st3" d="M-762.2,175.7l-6.7-24.2l8.8,0.8c0,0-61.7-41.1-122,29.7l28.6,7.2c0,0-7.9-39.4,79.1-37.6L-762.2,175.7z"/>
			<path class="st5" d="M-703.4,174.4c0,0-71.4-4.4-131.1,28.5c0,0,60.5-28.5,125.4-26.8L-703.4,174.4z"/>
			<path class="st5" d="M-836.3,202.3c0,0-1-18.9-45.1-21.8C-881.4,180.5-845.8,184.3-836.3,202.3z"/>
			<path class="st6" d="M-768.7,212.5c0,0-0.7-0.9,0.2-5.4l-79.9,5.8L-768.7,212.5z"/>
			<ellipse class="st7" cx="-859.9" cy="172.5" rx="4" ry="5.8"/>
			<polyline class="st3" points="-769.9,177.2 -776.9,171.2 -775.1,165 -783,178.3 -778,173.6 -771.3,177.7 			"/>
			<path class="st6" d="M-808.7,181.8l-1.7-13.6c1.2-2.1,4.8-0.6,4.8-0.6l3.6,13.5l15.2-1.6h0.4c-25,4.5-48.5,19.6-48.5,19.6
				c-2.2-11-11.7-13.4-11.7-13.4L-808.7,181.8z"/>
			<path class="st3" d="M-884.6,179.5c0,0-6.3-18.7-13.7-23.5c0,0,9.5,11,12.1,23.5H-884.6z"/>
			<ellipse class="st3" cx="-897.9" cy="156.1" rx="1.2" ry="1.8"/>
			<path class="st6" d="M-706.4,185.4c0,0-10.8-2.4-45.3,2.4c0,0,41.8-2.2,41.2,0.3c-0.6,2.6-16.4,2.3-16.4,2.3s16,0.6,14.8,3.3
				c-1.3,2.7-6.7,2.1-6.7,2.1l7.5,3.9c0,0,3.8-8.9,4.9-14"/>
			<path class="st6" d="M-909.6,182.6c0,0,25.6-5.6,51.8,9.4c0,0-32.3-1.9-48.9,7.5c0,0,8.6-9.4,31.4-10.3c0,0-15.7-4.1-32.2,1.3
				c0,0,1.9-4.5,25-4.9C-882.4,185.6-898.6,181.2-909.6,182.6z"/>
			<path class="st6" d="M-766.9,150c0,0-69.2-5.3-82.3,21C-849.1,171-844,141.7-766.9,150z"/>
		</g>
		<path class="st4" d="M-698.8,178c2.4-3.6,3.2-5.7,1.5-5.8c-1.9,0-5.7,2.9-8.1,6.5c-2.4,3.6-2.2,6.9-0.6,6.5
			C-704.4,184.8-701.2,181.6-698.8,178z"/>
	</g>
	<g>
		<g>
			<ellipse class="st8" cx="-729.8" cy="212" rx="19.2" ry="19.3"/>
			<ellipse class="st9" cx="-729.8" cy="212" rx="13.2" ry="13.3"/>
			<g>
				<path class="st10" d="M-728.8,202.3c-0.5-3.9-1.4-3.9-1.9,0c-0.5,3.9-4.1,6.5-7.9,5.8c-3.8-0.7-4.1,0.1-0.6,1.8
					c3.5,1.7,4.8,5.9,3,9.4c-1.8,3.4-1.1,4,1.6,1.1c2.7-2.8,7-2.8,9.7,0c2.7,2.8,3.4,2.3,1.5-1.1c-1.8-3.4-0.5-7.7,3-9.4
					c3.5-1.7,3.2-2.5-0.6-1.8C-724.8,208.8-728.3,206.2-728.8,202.3z"/>
			</g>
			<ellipse class="st11" cx="-729.8" cy="212" rx="4.5" ry="4.5"/>
		</g>
	</g>
	<g>
		<g>
			<ellipse class="st8" cx="-863.9" cy="212.9" rx="19.2" ry="19.3"/>
			<ellipse class="st9" cx="-863.9" cy="212.9" rx="13.2" ry="13.3"/>
			<g>
				<path class="st10" d="M-862.9,203.2c-0.5-3.9-1.4-3.9-1.9,0c-0.5,3.9-4.1,6.5-7.9,5.8c-3.8-0.7-4.1,0.1-0.6,1.8
					c3.5,1.7,4.8,5.9,3,9.4c-1.8,3.4-1.1,4,1.6,1.1c2.7-2.8,7-2.8,9.7,0c2.7,2.8,3.4,2.3,1.5-1.1c-1.8-3.4-0.5-7.7,3-9.4
					c3.5-1.7,3.2-2.5-0.6-1.8C-858.9,209.7-862.4,207.1-862.9,203.2z"/>
			</g>
			<ellipse class="st11" cx="-863.9" cy="212.9" rx="4.5" ry="4.5"/>
		</g>
	</g>
</g>
<rect x="-329.9" y="87.2" class="st0" width="550" height="199.1"/>
<path class="st1" d="M220.1,336.5c-0.2,0-0.5,0-0.7,0c-9.9,0-9.9-7.6-19.8-7.6c-9.9,0-9.9,7.6-19.8,7.6c-9.9,0-9.9-7.6-19.8-7.6
	c-9.9,0-9.9,7.6-19.8,7.6c-9.9,0-9.9-7.6-19.8-7.6s-9.9,7.6-19.8,7.6c-9.9,0-9.9-7.6-19.8-7.6c-9.9,0-9.9,7.6-19.8,7.6
	c-9.9,0-9.9-7.6-19.8-7.6c-9.4,0-9.9,6.8-18.3,7.5c-8.5-0.7-9-7.5-18.3-7.5c-9.9,0-9.9,7.6-19.8,7.6c-9.9,0-9.9-7.6-19.8-7.6
	c-9.9,0-9.9,7.6-19.8,7.6c-9.9,0-9.9-7.6-19.8-7.6c-9.9,0-9.9,7.6-19.8,7.6c-9.9,0-9.9-7.6-19.8-7.6c-9.9,0-9.9,7.6-19.8,7.6
	c-9.9,0-9.9-7.6-19.8-7.6c-9.9,0-9.9,7.6-19.8,7.6c-9.9,0-9.9-7.6-19.8-7.6c-9.9,0-9.9,7.6-19.8,7.6c-9.9,0-9.9-7.6-19.8-7.6
	s-9.9,7.6-19.8,7.6c-9.9,0-9.9-7.6-19.8-7.6c-9.9,0-9.9,7.6-19.8,7.6c-9.9,0-9.9-7.6-19.8-7.6c-9.4,0-9.9,6.8-18.3,7.5v24.4h550
	V336.5z"/>
<g>
	<g>
		<g>
			<polyline class="st2" points="-303.3,34 -282.2,33.5 -242.7,35.9 -147,35.1 -109.6,39.7 -105.2,29.7 -111.4,4.7 -282.7,4.7 			
				"/>
			<path class="st3" d="M-230.6,17.1c0,0-1.2-27.8-78.5-21.5l5.5,26c0,0-6.7,9-1.8,12.5l23.3-0.7c-0.3-1.4-0.4-2.8-0.4-4.2
				c0-11.3,9.2-20.5,20.5-20.5c11.3,0,20.5,9.2,20.5,20.5c0,2.3-0.4,4.6-1.1,6.6l95.7-0.8c-0.5-1.8-0.8-3.8-0.8-5.8
				c0-11.3,9.2-20.5,20.5-20.5c11.3,0,20.5,9.2,20.5,20.5c0,3.8-1,7.4-2.8,10.4l5.6,0.7l-1.2-10.7l-0.6-9l6.1-18.8
				c0,0,9.1-4.5,9.1-14.3C-90.6-12.4-179.5-16-230.6,17.1z"/>
			<ellipse class="st4" cx="-308.2" cy="2.2" rx="3.5" ry="2"/>
			<ellipse class="st4" cx="-307.2" cy="5.5" rx="3.5" ry="2"/>
			<ellipse class="st4" cx="-306.2" cy="8.7" rx="3.5" ry="2"/>
			<path class="st5" d="M-240.7,34h88.8c0,0-7.5-7.4,0.4-11.1c0,0-9.7-1.1-6.8,6.8L-240.7,34z"/>
			<path class="st3" d="M-157.6-7.9l-6.7-24.2l8.8,0.8c0,0-61.7-41.1-122,29.7l28.6,7.2c0,0-7.9-39.4,79.1-37.6L-157.6-7.9z"/>
			<path class="st5" d="M-98.7-9.2c0,0-71.4-4.4-131.1,28.5c0,0,60.5-28.5,125.4-26.8L-98.7-9.2z"/>
			<path class="st5" d="M-231.6,18.7c0,0-1-18.9-45.1-21.8C-276.7-3.1-241.1,0.7-231.6,18.7z"/>
			<path class="st6" d="M-164,28.9c0,0-0.7-0.9,0.2-5.4l-79.9,5.8L-164,28.9z"/>
			<ellipse class="st7" cx="-255.3" cy="-11.1" rx="4" ry="5.8"/>
			<polyline class="st3" points="-165.2,-6.5 -172.3,-12.4 -170.5,-18.6 -178.3,-5.3 -173.3,-10 -166.6,-5.9 			"/>
			<path class="st6" d="M-204.1-1.8l-1.7-13.6c1.2-2.1,4.8-0.6,4.8-0.6l3.6,13.5l15.2-1.6h0.4c-25,4.5-48.5,19.6-48.5,19.6
				C-232.5,4.5-242,2.2-242,2.2L-204.1-1.8z"/>
			<path class="st3" d="M-280-4.1c0,0-6.3-18.7-13.7-23.5c0,0,9.5,11,12.1,23.5H-280z"/>
			<ellipse class="st3" cx="-293.3" cy="-27.5" rx="1.2" ry="1.8"/>
			<path class="st6" d="M-101.8,1.8c0,0-10.8-2.4-45.3,2.4c0,0,41.8-2.2,41.2,0.3c-0.6,2.6-16.4,2.3-16.4,2.3s16,0.6,14.8,3.3
				c-1.3,2.7-6.7,2.1-6.7,2.1l7.5,3.9c0,0,3.8-8.9,4.9-14"/>
			<path class="st6" d="M-305-1c0,0,25.6-5.6,51.8,9.4c0,0-32.3-1.9-48.9,7.5c0,0,8.6-9.4,31.4-10.3c0,0-15.7-4.1-32.2,1.3
				c0,0,1.9-4.5,25-4.9C-277.7,2-293.9-2.5-305-1z"/>
			<path class="st6" d="M-162.2-33.6c0,0-69.2-5.3-82.3,21C-244.5-12.6-239.4-41.9-162.2-33.6z"/>
		</g>
		<path class="st4" d="M-94.1-5.6c2.4-3.6,3.2-5.7,1.5-5.8c-1.9,0-5.7,2.9-8.1,6.5c-2.4,3.6-2.2,6.9-0.6,6.5
			C-99.8,1.2-96.5-2-94.1-5.6z"/>
	</g>
	<g>
		<g>
			<ellipse class="st8" cx="-125.1" cy="28.4" rx="19.2" ry="19.3"/>
			<ellipse class="st9" cx="-125.1" cy="28.4" rx="13.2" ry="13.3"/>
			<g>
				<path class="st10" d="M-124.2,18.7c-0.5-3.9-1.4-3.9-1.9,0c-0.5,3.9-4.1,6.5-7.9,5.8c-3.8-0.7-4.1,0.1-0.6,1.8
					c3.5,1.7,4.8,5.9,3,9.4c-1.8,3.4-1.1,4,1.6,1.1c2.7-2.8,7-2.8,9.7,0c2.7,2.8,3.4,2.3,1.5-1.1c-1.8-3.4-0.5-7.7,3-9.4
					c3.5-1.7,3.2-2.5-0.6-1.8C-120.1,25.2-123.6,22.6-124.2,18.7z"/>
			</g>
			<ellipse class="st11" cx="-125.1" cy="28.4" rx="4.5" ry="4.5"/>
		</g>
	</g>
	<g>
		<g>
			<ellipse class="st8" cx="-259.2" cy="29.3" rx="19.2" ry="19.3"/>
			<ellipse class="st9" cx="-259.2" cy="29.3" rx="13.2" ry="13.3"/>
			<g>
				<path class="st10" d="M-258.3,19.6c-0.5-3.9-1.4-3.9-1.9,0c-0.5,3.9-4.1,6.5-7.9,5.8c-3.8-0.7-4.1,0.1-0.6,1.8
					c3.5,1.7,4.8,5.9,3,9.4c-1.8,3.4-1.1,4,1.6,1.1c2.7-2.8,7-2.8,9.7,0c2.7,2.8,3.4,2.3,1.5-1.1c-1.8-3.4-0.5-7.7,3-9.4
					c3.5-1.7,3.2-2.5-0.6-1.8C-254.2,26.1-257.7,23.5-258.3,19.6z"/>
			</g>
			<ellipse class="st11" cx="-259.2" cy="29.3" rx="4.5" ry="4.5"/>
		</g>
	</g>
</g>
<path class="st4" d="M201.1-9.4c2.4-3.6,3.2-5.7,1.5-5.8c-1.9,0-5.7,2.9-8.1,6.5c-2.4,3.6-2.2,6.9-0.6,6.5
	C195.5-2.6,198.7-5.9,201.1-9.4z"/>
<g>
	<g>
		<ellipse class="st8" cx="19.2" cy="19.3" rx="19.2" ry="19.3"/>
		<ellipse class="st9" cx="19.2" cy="19.3" rx="13.2" ry="13.3"/>
		<g>
			<path class="st10" d="M20.1,9.5c-0.5-3.9-1.4-3.9-1.9,0c-0.5,3.9-4.1,6.5-7.9,5.8c-3.8-0.7-4.1,0.1-0.6,1.8
				c3.5,1.7,4.8,5.9,3,9.4c-1.8,3.4-1.1,4,1.6,1.1c2.7-2.8,7-2.8,9.7,0c2.7,2.8,3.4,2.3,1.5-1.1c-1.8-3.4-0.5-7.7,3-9.4
				c3.5-1.7,3.2-2.5-0.6-1.8C24.2,16,20.6,13.4,20.1,9.5z"/>
		</g>
		<ellipse class="st11" cx="19.2" cy="19.3" rx="4.5" ry="4.5"/>
	</g>
</g>
</svg>
