<?xml version="1.0" encoding="utf-8"?>
<!-- Generator: Adobe Illustrator 21.0.2, SVG Export Plug-In . SVG Version: 6.00 Build 0)  -->
<svg version="1.1" id="Capa_1" xmlns="http://www.w3.org/2000/svg" xmlns:xlink="http://www.w3.org/1999/xlink" x="0px" y="0px"
	 viewBox="0 0 550 31.9" style="enable-background:new 0 0 550 31.9;" xml:space="preserve">
<style type="text/css">
	.st0{fill-rule:evenodd;clip-rule:evenodd;fill:#B0B256;}
	.st1{fill:#495E67;}
	.st2{fill-rule:evenodd;clip-rule:evenodd;fill:#014262;}
	.st3{fill:#0081BA;}
	.st4{fill:#F8B133;stroke:#005980;}
	.st5{fill:#FFFFFF;}
	.st6{fill:#005980;}
	.st7{fill:#FFFFFF;stroke:#005980;stroke-width:0.9747;}
	.st8{fill-rule:evenodd;clip-rule:evenodd;fill:#1D1D1B;}
	.st9{fill-rule:evenodd;clip-rule:evenodd;fill:#CECEB8;}
	.st10{fill-rule:evenodd;clip-rule:evenodd;fill:#BD1622;}
	.st11{fill-rule:evenodd;clip-rule:evenodd;fill:#B1B28F;}
</style>
<g id="Automóvil">
</g>
<rect x="-592" y="-260.7" class="st0" width="550" height="199.1"/>
<path class="st1" d="M-42-80.8c-0.2,0-0.5,0-0.7,0c-9.9,0-9.9-7.6-19.8-7.6c-9.9,0-9.9,7.6-19.8,7.6c-9.9,0-9.9-7.6-19.8-7.6
	c-9.9,0-9.9,7.6-19.8,7.6c-9.9,0-9.9-7.6-19.8-7.6c-9.9,0-9.9,7.6-19.8,7.6c-9.9,0-9.9-7.6-19.8-7.6c-9.9,0-9.9,7.6-19.8,7.6
	c-9.9,0-9.9-7.6-19.8-7.6c-9.4,0-9.9,6.8-18.3,7.5c-8.5-0.7-9-7.5-18.3-7.5c-9.9,0-9.9,7.6-19.8,7.6c-9.9,0-9.9-7.6-19.8-7.6
	c-9.9,0-9.9,7.6-19.8,7.6c-9.9,0-9.9-7.6-19.8-7.6c-9.9,0-9.9,7.6-19.8,7.6c-9.9,0-9.9-7.6-19.8-7.6c-9.9,0-9.9,7.6-19.8,7.6
	c-9.9,0-9.9-7.6-19.8-7.6c-9.9,0-9.9,7.6-19.8,7.6c-9.9,0-9.9-7.6-19.8-7.6c-9.9,0-9.9,7.6-19.8,7.6c-9.9,0-9.9-7.6-19.8-7.6
	c-9.9,0-9.9,7.6-19.8,7.6c-9.9,0-9.9-7.6-19.8-7.6c-9.9,0-9.9,7.6-19.8,7.6c-9.9,0-9.9-7.6-19.8-7.6c-9.4,0-9.9,6.8-18.3,7.5v24.4
	h550V-80.8z"/>
<g>
	<g>
		<g>
			<polyline class="st2" points="-578,-111.4 -557,-111.9 -517.4,-109.5 -421.7,-110.3 -384.3,-105.7 -380,-115.7 -386.2,-140.6 
				-557.4,-140.6 			"/>
			<path class="st3" d="M-505.4-128.2c0,0-1.2-27.8-78.5-21.5l5.5,26c0,0-6.7,9-1.8,12.5l23.3-0.7c-0.3-1.4-0.4-2.8-0.4-4.2
				c0-11.3,9.2-20.5,20.5-20.5c11.3,0,20.5,9.2,20.5,20.5c0,2.3-0.4,4.6-1.1,6.6l95.7-0.8c-0.5-1.8-0.8-3.8-0.8-5.8
				c0-11.3,9.2-20.5,20.5-20.5c11.3,0,20.5,9.2,20.5,20.5c0,3.8-1,7.4-2.8,10.4l5.6,0.7l-1.2-10.7l-0.6-9l6.1-18.8
				c0,0,9.1-4.5,9.1-14.3C-365.4-157.8-454.2-161.3-505.4-128.2z"/>
			<ellipse class="st4" cx="-583" cy="-143.2" rx="3.5" ry="2"/>
			<ellipse class="st4" cx="-582" cy="-139.8" rx="3.5" ry="2"/>
			<ellipse class="st4" cx="-580.9" cy="-136.7" rx="3.5" ry="2"/>
			<path class="st5" d="M-515.5-111.4h88.8c0,0-7.5-7.4,0.4-11.1c0,0-9.7-1.1-6.8,6.8L-515.5-111.4z"/>
			<path class="st3" d="M-432.3-153.3l-6.7-24.2l8.8,0.8c0,0-61.7-41.1-122,29.7l28.6,7.2c0,0-7.9-39.4,79.1-37.6L-432.3-153.3z"/>
			<path class="st5" d="M-373.5-154.6c0,0-71.4-4.4-131.1,28.5c0,0,60.5-28.5,125.4-26.8L-373.5-154.6z"/>
			<path class="st5" d="M-506.4-126.6c0,0-1-18.9-45.1-21.8C-551.5-148.5-515.9-144.7-506.4-126.6z"/>
			<path class="st6" d="M-438.8-116.5c0,0-0.7-0.9,0.2-5.4l-79.9,5.8L-438.8-116.5z"/>
			<ellipse class="st7" cx="-530" cy="-156.4" rx="4" ry="5.8"/>
			<polyline class="st3" points="-440,-151.8 -447,-157.7 -445.2,-164 -453.1,-150.6 -448,-155.4 -441.4,-151.2 			"/>
			<path class="st6" d="M-478.8-147.1l-1.7-13.6c1.2-2.1,4.8-0.6,4.8-0.6l3.6,13.5l15.2-1.6h0.4c-25,4.5-48.5,19.6-48.5,19.6
				c-2.2-11-11.7-13.4-11.7-13.4L-478.8-147.1z"/>
			<path class="st3" d="M-554.7-149.4c0,0-6.3-18.7-13.7-23.5c0,0,9.5,11,12.1,23.5H-554.7z"/>
			<ellipse class="st3" cx="-568" cy="-172.9" rx="1.2" ry="1.8"/>
			<path class="st6" d="M-376.5-143.6c0,0-10.8-2.4-45.3,2.4c0,0,41.8-2.2,41.2,0.3c-0.6,2.6-16.4,2.3-16.4,2.3s16,0.6,14.8,3.3
				c-1.3,2.7-6.7,2.1-6.7,2.1l7.5,3.9c0,0,3.8-8.9,4.9-14"/>
			<path class="st6" d="M-579.7-146.3c0,0,25.6-5.6,51.8,9.4c0,0-32.3-1.9-48.9,7.5c0,0,8.6-9.4,31.4-10.3c0,0-15.7-4.1-32.2,1.3
				c0,0,1.9-4.5,25-4.9C-552.5-143.3-568.6-147.8-579.7-146.3z"/>
			<path class="st6" d="M-437-178.9c0,0-69.2-5.3-82.3,21C-519.2-157.9-514.1-187.2-437-178.9z"/>
		</g>
		<path class="st4" d="M-368.9-151c2.4-3.6,3.2-5.7,1.5-5.8c-1.9,0-5.7,2.9-8.1,6.5c-2.4,3.6-2.2,6.9-0.6,6.5
			C-374.5-144.2-371.3-147.4-368.9-151z"/>
	</g>
	<g>
		<g>
			<ellipse class="st8" cx="-399.9" cy="-116.9" rx="19.2" ry="19.3"/>
			<ellipse class="st9" cx="-399.9" cy="-116.9" rx="13.2" ry="13.3"/>
			<g>
				<path class="st10" d="M-398.9-126.7c-0.5-3.9-1.4-3.9-1.9,0c-0.5,3.9-4.1,6.5-7.9,5.8c-3.8-0.7-4.1,0.1-0.6,1.8
					c3.5,1.7,4.8,5.9,3,9.4c-1.8,3.4-1.1,4,1.6,1.1c2.7-2.8,7-2.8,9.7,0c2.7,2.8,3.4,2.3,1.5-1.1c-1.8-3.4-0.5-7.7,3-9.4
					c3.5-1.7,3.2-2.5-0.6-1.8C-394.9-120.2-398.4-122.8-398.9-126.7z"/>
			</g>
			<ellipse class="st11" cx="-399.9" cy="-116.9" rx="4.5" ry="4.5"/>
		</g>
	</g>
	<g>
		<g>
			<ellipse class="st8" cx="-534" cy="-116" rx="19.2" ry="19.3"/>
			<ellipse class="st9" cx="-534" cy="-116" rx="13.2" ry="13.3"/>
			<g>
				<path class="st10" d="M-533-125.8c-0.5-3.9-1.4-3.9-1.9,0c-0.5,3.9-4.1,6.5-7.9,5.8c-3.8-0.7-4.1,0.1-0.6,1.8
					c3.5,1.7,4.8,5.9,3,9.4c-1.8,3.4-1.1,4,1.6,1.1c2.7-2.8,7-2.8,9.7,0c2.7,2.8,3.4,2.3,1.5-1.1c-1.8-3.4-0.5-7.7,3-9.4
					c3.5-1.7,3.2-2.5-0.6-1.8C-529-119.3-532.5-121.9-533-125.8z"/>
			</g>
			<ellipse class="st11" cx="-534" cy="-116" rx="4.5" ry="4.5"/>
		</g>
	</g>
</g>
<rect y="-241.7" class="st0" width="550" height="199.1"/>
<path class="st1" d="M550,7.5c-0.2,0-0.5,0-0.7,0c-9.9,0-9.9-7.6-19.8-7.6c-9.9,0-9.9,7.6-19.8,7.6c-9.9,0-9.9-7.6-19.8-7.6
	c-9.9,0-9.9,7.6-19.8,7.6c-9.9,0-9.9-7.6-19.8-7.6c-9.9,0-9.9,7.6-19.8,7.6c-9.9,0-9.9-7.6-19.8-7.6c-9.9,0-9.9,7.6-19.8,7.6
	c-9.9,0-9.9-7.6-19.8-7.6c-9.4,0-9.9,6.8-18.3,7.5c-8.5-0.7-9-7.5-18.3-7.5c-9.9,0-9.9,7.6-19.8,7.6C305,7.6,305,0,295.1,0
	c-9.9,0-9.9,7.6-19.8,7.6c-9.9,0-9.9-7.6-19.8-7.6c-9.9,0-9.9,7.6-19.8,7.6c-9.9,0-9.9-7.6-19.8-7.6c-9.9,0-9.9,7.6-19.8,7.6
	c-9.9,0-9.9-7.6-19.8-7.6c-9.9,0-9.9,7.6-19.8,7.6c-9.9,0-9.9-7.6-19.8-7.6c-9.9,0-9.9,7.6-19.8,7.6c-9.9,0-9.9-7.6-19.8-7.6
	s-9.9,7.6-19.8,7.6C67.8,7.6,67.8,0,57.9,0C48,0,48,7.6,38.1,7.6C28.2,7.6,28.2,0,18.3,0C9,0,8.5,6.8,0,7.5v24.4h550V7.5z"/>
<g>
	<g>
		<g>
			<polyline class="st2" points="26.6,-295 47.7,-295.5 87.2,-293.1 182.9,-293.9 220.3,-289.3 224.7,-299.3 218.5,-324.2 
				47.2,-324.2 			"/>
			<path class="st3" d="M99.3-311.8c0,0-1.2-27.8-78.5-21.5l5.5,26c0,0-6.7,9-1.8,12.5l23.3-0.7c-0.3-1.4-0.4-2.8-0.4-4.2
				c0-11.3,9.2-20.5,20.5-20.5c11.3,0,20.5,9.2,20.5,20.5c0,2.3-0.4,4.6-1.1,6.6l95.7-0.8c-0.5-1.8-0.8-3.8-0.8-5.8
				c0-11.3,9.2-20.5,20.5-20.5c11.3,0,20.5,9.2,20.5,20.5c0,3.8-1,7.4-2.8,10.4l5.6,0.7l-1.2-10.7l-0.6-9l6.1-18.8
				c0,0,9.1-4.5,9.1-14.3C239.3-341.4,150.4-344.9,99.3-311.8z"/>
			<ellipse class="st4" cx="21.7" cy="-326.8" rx="3.5" ry="2"/>
			<ellipse class="st4" cx="22.7" cy="-323.4" rx="3.5" ry="2"/>
			<ellipse class="st4" cx="23.7" cy="-320.3" rx="3.5" ry="2"/>
			<path class="st5" d="M89.2-295H178c0,0-7.5-7.4,0.4-11.1c0,0-9.7-1.1-6.8,6.8L89.2-295z"/>
			<path class="st3" d="M172.3-336.9l-6.7-24.2l8.8,0.8c0,0-61.7-41.1-122,29.7l28.6,7.2c0,0-7.9-39.4,79.1-37.6L172.3-336.9z"/>
			<path class="st5" d="M231.2-338.2c0,0-71.4-4.4-131.1,28.5c0,0,60.5-28.5,125.4-26.8L231.2-338.2z"/>
			<path class="st5" d="M98.3-310.2c0,0-1-18.9-45.1-21.8C53.2-332.1,88.8-328.3,98.3-310.2z"/>
			<path class="st6" d="M165.9-300.1c0,0-0.7-0.9,0.2-5.4l-79.9,5.8L165.9-300.1z"/>
			<ellipse class="st7" cx="74.6" cy="-340" rx="4" ry="5.8"/>
			<polyline class="st3" points="164.7,-335.4 157.6,-341.3 159.4,-347.6 151.6,-334.2 156.6,-339 163.3,-334.8 			"/>
			<path class="st6" d="M125.8-330.7l-1.7-13.6c1.2-2.1,4.8-0.6,4.8-0.6l3.6,13.5l15.2-1.6h0.4c-25,4.5-48.5,19.6-48.5,19.6
				c-2.2-11-11.7-13.4-11.7-13.4L125.8-330.7z"/>
			<path class="st3" d="M50-333c0,0-6.3-18.7-13.7-23.5c0,0,9.5,11,12.1,23.5H50z"/>
			<ellipse class="st3" cx="36.6" cy="-356.5" rx="1.2" ry="1.8"/>
			<path class="st6" d="M228.2-327.2c0,0-10.8-2.4-45.3,2.4c0,0,41.8-2.2,41.2,0.3c-0.6,2.6-16.4,2.3-16.4,2.3s16,0.6,14.8,3.3
				c-1.3,2.7-6.7,2.1-6.7,2.1l7.5,3.9c0,0,3.8-8.9,4.9-14"/>
			<path class="st6" d="M25-329.9c0,0,25.6-5.6,51.8,9.4c0,0-32.3-1.9-48.9,7.5c0,0,8.6-9.4,31.4-10.3c0,0-15.7-4.1-32.2,1.3
				c0,0,1.9-4.5,25-4.9C52.2-326.9,36-331.4,25-329.9z"/>
			<path class="st6" d="M167.7-362.5c0,0-69.2-5.3-82.3,21C85.4-341.5,90.5-370.8,167.7-362.5z"/>
		</g>
		<path class="st4" d="M235.8-334.6c2.4-3.6,3.2-5.7,1.5-5.8c-1.9,0-5.7,2.9-8.1,6.5c-2.4,3.6-2.2,6.9-0.6,6.5
			C230.1-327.8,233.4-331,235.8-334.6z"/>
	</g>
	<g>
		<g>
			<ellipse class="st8" cx="204.8" cy="-300.5" rx="19.2" ry="19.3"/>
			<ellipse class="st9" cx="204.8" cy="-300.5" rx="13.2" ry="13.3"/>
			<g>
				<path class="st10" d="M205.7-310.3c-0.5-3.9-1.4-3.9-1.9,0c-0.5,3.9-4.1,6.5-7.9,5.8c-3.8-0.7-4.1,0.1-0.6,1.8
					c3.5,1.7,4.8,5.9,3,9.4c-1.8,3.4-1.1,4,1.6,1.1c2.7-2.8,7-2.8,9.7,0c2.7,2.8,3.4,2.3,1.5-1.1c-1.8-3.4-0.5-7.7,3-9.4
					s3.2-2.5-0.6-1.8C209.8-303.8,206.3-306.4,205.7-310.3z"/>
			</g>
			<ellipse class="st11" cx="204.8" cy="-300.5" rx="4.5" ry="4.5"/>
		</g>
	</g>
	<g>
		<g>
			<ellipse class="st8" cx="70.7" cy="-299.6" rx="19.2" ry="19.3"/>
			<ellipse class="st9" cx="70.7" cy="-299.6" rx="13.2" ry="13.3"/>
			<g>
				<path class="st10" d="M71.6-309.4c-0.5-3.9-1.4-3.9-1.9,0c-0.5,3.9-4.1,6.5-7.9,5.8c-3.8-0.7-4.1,0.1-0.6,1.8
					c3.5,1.7,4.8,5.9,3,9.4c-1.8,3.4-1.1,4,1.6,1.1c2.7-2.8,7-2.8,9.7,0c2.7,2.8,3.4,2.3,1.5-1.1c-1.8-3.4-0.5-7.7,3-9.4
					c3.5-1.7,3.2-2.5-0.6-1.8C75.7-302.9,72.2-305.5,71.6-309.4z"/>
			</g>
			<ellipse class="st11" cx="70.7" cy="-299.6" rx="4.5" ry="4.5"/>
		</g>
	</g>
</g>
<path class="st4" d="M531-338.4c2.4-3.6,3.2-5.7,1.5-5.8c-1.9,0-5.7,2.9-8.1,6.5c-2.4,3.6-2.2,6.9-0.6,6.5
	C525.4-331.6,528.6-334.8,531-338.4z"/>
<g>
	<g>
		<ellipse class="st8" cx="349.1" cy="-309.7" rx="19.2" ry="19.3"/>
		<ellipse class="st9" cx="349.1" cy="-309.7" rx="13.2" ry="13.3"/>
		<g>
			<path class="st10" d="M350-319.4c-0.5-3.9-1.4-3.9-1.9,0c-0.5,3.9-4.1,6.5-7.9,5.8c-3.8-0.7-4.1,0.1-0.6,1.8
				c3.5,1.7,4.8,5.9,3,9.4c-1.8,3.4-1.1,4,1.6,1.1c2.7-2.8,7-2.8,9.7,0c2.7,2.8,3.4,2.3,1.5-1.1c-1.8-3.4-0.5-7.7,3-9.4
				c3.5-1.7,3.2-2.5-0.6-1.8C354.1-313,350.5-315.6,350-319.4z"/>
		</g>
		<ellipse class="st11" cx="349.1" cy="-309.7" rx="4.5" ry="4.5"/>
	</g>
</g>
</svg>
