<svg id="Layer_1" data-name="Layer 1" xmlns="http://www.w3.org/2000/svg" viewBox="0 0 240.39 226.41"><defs><style>.cls-1{fill:#ea8e10;}.cls-2{fill:#231f20;}.cls-3{fill:#f5a909;}.cls-4{fill:#12100b;}.cls-4,.cls-7{stroke:#4d4947;}.cls-4,.cls-9{stroke-width:6px;}.cls-5{fill:#d0d0d0;stroke-width:4px;}.cls-5,.cls-6{stroke:#231f20;}.cls-6,.cls-8{fill:#fff;}.cls-6{stroke-width:2px;}.cls-7,.cls-9{fill:none;}.cls-7{stroke-width:5px;}.cls-9{stroke:#13110c;}.cls-10{fill:#e30613;stroke:#dd1215;stroke-width:0.23px;}.cls-11{fill:#1d1c1c;}.cls-12{fill:#040504;}.cls-13{fill:#181718;}.cls-14{fill:#c7c7c7;}.cls-15{fill:#171617;}.cls-16{fill:#242424;}.cls-17{fill:#0f100f;}.cls-18{fill:#202020;}.cls-19{fill:#0c0c0c;}.cls-20{fill:#080808;}.cls-21{fill:#4e4e4e;}.cls-22{fill:#323232;}.cls-23{fill:#121212;}.cls-24{fill:#474747;}.cls-25{fill:#d8d7d8;}.cls-26{fill:#858585;}.cls-27{fill:#fbfbfb;}.cls-28{fill:#f3f4f4;}.cls-29{fill:#393a3a;}.cls-30{fill:#b4b4b4;}.cls-31{fill:#292929;}.cls-32{fill:#606060;}.cls-33{fill:#696869;}.cls-34{fill:#595959;}.cls-35{fill:#161516;}.cls-36{fill:#eaeaea;}.cls-37{fill:#3e3f3e;}.cls-38{fill:#9a9b9a;}.cls-39{fill:#13110c;stroke:#fff;stroke-miterlimit:10;stroke-width:0.25px;}.cls-40{font-size:21.62px;font-family:MyriadPro-Regular, Myriad Pro;}.cls-41{letter-spacing:-0.01em;}.cls-42{letter-spacing:0em;}</style></defs><title>Mesa de trabajo 1</title><path class="cls-1" d="M168,16.67a344,344,0,0,0-49.38-3.21,355.33,355.33,0,0,0-46.23,2.76V40.46H36.65v93.13H203.79V40.91H168V16.67Z"/><path class="cls-2" d="M168,47.87V16.77c18.29,3.17,30.14,8.17,30.14,13.81a5.72,5.72,0,0,1,5.63,5.8V47.87Z"/><path class="cls-2" d="M72.41,47.37V16.27c-18.29,3.17-30.14,8.17-30.14,13.81a5.72,5.72,0,0,0-5.63,5.8V47.37Z"/><path class="cls-3" d="M213.1,132.78c-4.23-4.22-12.78-4.51-19.15-8.11-25.55-14.45-43.26-19-73.16-19h-1.14c-29.9,0-47.61,4.58-73.16,19-6.37,3.6-14.92,3.89-19.15,8.11-12,12-4.39,38-4.39,38A1.24,1.24,0,0,0,24.19,172H216.25a1.24,1.24,0,0,0,1.24-1.25S225.14,144.82,213.1,132.78Z"/><path class="cls-3" d="M143.33,14.19c0-2.86-9.3-9.33-23.24-9.33s-23,6.47-23,9.33"/><path class="cls-2" d="M216,172H24.43c-.73,0-1.31.83-1.31,1.86l3.52,8.5c0,1.08.56,2,1.25,2h13.4v26.13A1.48,1.48,0,0,0,42.69,212H81.94a1.48,1.48,0,0,0,1.39-1.55V194.13h72.94v16.33a1.48,1.48,0,0,0,1.4,1.55h39.84a1.48,1.48,0,0,0,1.4-1.55V184.33h13.63c.7,0,1.27-.89,1.27-2l3.52-8.5C217.32,172.83,216.73,172,216,172Z"/><path class="cls-4" d="M162.68,155.44a7.06,7.06,0,0,1-7.06,7.06H84.82a7.06,7.06,0,0,1-7.06-7.06V128.88a7.06,7.06,0,0,1,7.06-7.07h70.79a7.06,7.06,0,0,1,7.06,7.07v26.56Z"/><path class="cls-5" d="M213.37,147.78a15.25,15.25,0,1,1-15.26-15.25A15.25,15.25,0,0,1,213.37,147.78Z"/><path class="cls-6" d="M207.56,147.78a9.44,9.44,0,1,1-9.44-9.44A9.44,9.44,0,0,1,207.56,147.78Z"/><path class="cls-5" d="M57.57,147.78a15.25,15.25,0,1,1-15.26-15.25A15.25,15.25,0,0,1,57.57,147.78Z"/><path class="cls-6" d="M51.76,147.78a9.44,9.44,0,1,1-9.44-9.44A9.44,9.44,0,0,1,51.76,147.78Z"/><line class="cls-7" x1="79.83" y1="138.49" x2="160.61" y2="138.49"/><line class="cls-7" x1="79.83" y1="130.11" x2="160.61" y2="130.11"/><line class="cls-7" x1="79.83" y1="146.87" x2="160.61" y2="146.87"/><line class="cls-7" x1="79.83" y1="155.25" x2="160.61" y2="155.25"/><path class="cls-8" d="M115.52,91.8A1.24,1.24,0,0,1,114.27,93H43.56a1.25,1.25,0,0,1-1.25-1.25V57.45a1.25,1.25,0,0,1,1.25-1.25h70.71a1.25,1.25,0,0,1,1.24,1.25Z"/><path class="cls-8" d="M198.12,91.8A1.25,1.25,0,0,1,196.88,93h-70.7a1.26,1.26,0,0,1-1.26-1.25V57.45a1.26,1.26,0,0,1,1.26-1.25h70.7a1.24,1.24,0,0,1,1.24,1.25Z"/><path class="cls-2" d="M28.25,86.56A1.24,1.24,0,0,1,27,87.8H10.2A1.25,1.25,0,0,1,9,86.56v-24a1.25,1.25,0,0,1,1.25-1.24H27a1.23,1.23,0,0,1,1.24,1.24Z"/><path class="cls-9" d="M18.6,87.8c0,5.76,8,10.42,17.89,10.42"/><path class="cls-2" d="M212.14,86.56a1.25,1.25,0,0,0,1.24,1.24H230.2a1.25,1.25,0,0,0,1.24-1.24v-24a1.25,1.25,0,0,0-1.24-1.24H213.38a1.25,1.25,0,0,0-1.24,1.24Z"/><path class="cls-9" d="M221.79,87.8c0,5.76-8,10.42-17.88,10.42"/><path class="cls-10" d="M173.45,34.68A10.6,10.6,0,1,0,184,24.09,10.59,10.59,0,0,0,173.45,34.68Z"/><path class="cls-10" d="M44.56,34.68a10.6,10.6,0,1,0,10.58-10.6A10.59,10.59,0,0,0,44.56,34.68Z"/><path class="cls-11" d="M164.36,56.21h7.27l.87,1.06.2.14.15.15V59.5a4.41,4.41,0,0,1-.64.13c-.43,0-.5-.15-.22-.47l.07,0-.07,0c-.23-.52-.44-1.05-.68-1.56-.08-.16-.26-.37-.39-.37a16.75,16.75,0,0,0-2.86.25c-.72.16-1.15.14-1.4-.71l-.36,1c-.84,0-1.48.15-1.66,1.17,0,.26-.18,1.12-1,.78,0-.25.08-.5.11-.76l.23-1.67Z"/><path class="cls-12" d="M163.34,57.77l.33-1.56h.69l-.35,1c-.16.3-.32.6-.49.89s-.37.57-.56.85Z"/><path class="cls-13" d="M171.79,99.73l-.66-.27L170.2,99l-.49-.12-.15-.16a11.48,11.48,0,0,0-1.2-.45,10.79,10.79,0,0,0-1.24-.19l.19-1h.5v.35c.05.1.08.26.16.28,1.53.43,3.08.81,4.59,1.29.27.09.42.57.62.86l-.83-.08Z"/><path class="cls-14" d="M166.95,98.58l.35.1v.2Z"/><path class="cls-15" d="M172,59.15c-.27.32-.21.5.22.47a4.42,4.42,0,0,0,.64-.13l-.17.7-.53-.17-.58.24c-.09-.76-1-.48-1.66-.76-.29-.4-.59-.39-.87,0h-.18a2.58,2.58,0,0,0-2.43.17h-.86l-2.08.34.18-.34c.79.34.92-.52,1-.78.18-1,.82-1.19,1.66-1.17l.36-1c.25.85.68.87,1.4.71a16.75,16.75,0,0,1,2.86-.25c.13,0,.32.21.39.37.25.51.46,1,.68,1.56Z"/><path class="cls-12" d="M169.9,59.5c.62.29,1.57,0,1.66.76l.58-.24v.17l.3.46.23-.46h0l.17-.7V57.56l.19.2.17,1.9a1.17,1.17,0,0,0,.18,1.56,12.17,12.17,0,0,0,1,.94l-.51.95-1,.05-.5,1.86-.33,0a4.11,4.11,0,0,0-.51-2.62l-.7-.7-1-1h-.17l-.17-.17h-.35l-1.55-.8,1.2-.24h1Z"/><path class="cls-16" d="M163.67,59.67l-.18.34-.59.44-.11-.81L163,59c.19-.28.38-.56.56-.85s.33-.59.49-.89l-.23,1.67C163.74,59.17,163.7,59.42,163.67,59.67Z"/><path class="cls-15" d="M172,59.15l.07,0-.07,0Z"/><path class="cls-12" d="M172.5,57.27l.2.14Z"/><path class="cls-15" d="M167.47,97.08h-.15l-.7.18a1.22,1.22,0,0,0-1.4,1c-.55.12-.75.5-.88,1s-.29,1.35-1.16,1.52c-.14,0-.33.51-.28.73a.73.73,0,0,1-.42,1c-.46.23-.69.55-.36,1.11.12.2,0,.57-.07.85-.19.7-.43,1.39-.64,2.08H160c-.09-.7-.21-1.4-.26-2.11a1.54,1.54,0,0,1,.2-.79,2.59,2.59,0,0,0-1.67-3.75c-.55-.11-.92-.33-.88-1a2.73,2.73,0,0,1,1.13-2.14,3.07,3.07,0,0,1,0-1,1.41,1.41,0,0,1,.63-.85,16,16,0,0,1,2.21-.52c-.14-1.05-.22-2.11-.42-3.14-.12-.63-.54-1.21-.63-1.84a1.63,1.63,0,0,0-1.78-1.55l-.72,2a2.45,2.45,0,0,1-.14-.63c0-.65.09-1.3.14-1.95l.54-1.91.85,0c-.15.51-.3,1.12.32,1.33s.72-.31.73-.8l1.21.35v.33c-.44.81-.44.83,0,1l.6,0a3.65,3.65,0,0,1,.48.43c.51.65,1,1.31,1.51,2l.5.45.12.12.24.34a3.85,3.85,0,0,0,.75.68,1,1,0,0,1,.64,1.06l0,.06,0-.06,1-.5.88,0,.47,0a3.25,3.25,0,0,1,.66.19,1.91,1.91,0,0,1,.41.4v.52h-.16L168,95.35l-.35.52v.35l-.17.33v.36Q167.47,97,167.47,97.08Zm-4.18,1.26c-.12-.53-.25-1,.57-1.18a2.68,2.68,0,0,0,1.17-.79c.18-.18.37-.63.27-.76a2.82,2.82,0,0,1-.31-2.21,1.22,1.22,0,0,0-.72-.94c-.54-.15-.8.3-.79.84,0,.17,0,.41,0,.5a3,3,0,0,0-.86,2.47c0,.29-.21.6-.24.9C162.26,98.08,162.54,98.42,163.29,98.34Z"/><path class="cls-17" d="M157.77,89.81l.72-2a1.63,1.63,0,0,1,1.78,1.55c.08.63.5,1.21.63,1.84.2,1,.29,2.08.42,3.14a16,16,0,0,0-2.21.52,1.41,1.41,0,0,0-.63.85,3.07,3.07,0,0,0,0,1,2.73,2.73,0,0,0-1.13,2.14c0,.7.33.92.88,1a2.59,2.59,0,0,1,1.67,3.75,1.54,1.54,0,0,0-.2.79c.05.7.17,1.4.26,2.11H154c-.13-.59-.3-1.17-.37-1.76-.18-1.42-.65-2.83,0-4.29a14.8,14.8,0,0,0,.42-2.17c.26-1,.59-2.05.88-3.08.14-.41.24-.81.37-1.2s.36-.6.35-.9a1.56,1.56,0,0,1,1.12-1.62c.53-.19.56-.49.55-.91l.17-.17v-.35l.17-.17Z"/><path class="cls-12" d="M157.26,90.67c0,.42,0,.72-.55.91a1.56,1.56,0,0,0-1.12,1.62c0,.29-.24.59-.35.9s-.24.79-.37,1.2c-.3,1-.62,2-.88,3.08a14.8,14.8,0,0,1-.42,2.17c-.62,1.46-.15,2.87,0,4.29.07.59.25,1.17.37,1.76h-.86c.42-1.25-.2-2.41-.35-3.61l.52-5c.09-.11.25-.22.25-.33,0-.76,0-1.51-.07-2.27L154,95V93.79l0-.07,0,.07-.87.35-.69,0v-.55l1-.5.21-.34.3-.21.17-.18.35-.51h.17l.87-.51a.1.1,0,0,1,.09-.06l.75-.49.45-.61a4.77,4.77,0,0,0,.36-1c.09-.66.09-1.34.13-2l.46,0c-.05.65-.12,1.3-.14,1.95a2.45,2.45,0,0,0,.14.63l-.17.17-.17.17v.35Zm-3.51,5.23a.22.22,0,0,0,0-.07l-.06,0a.22.22,0,0,0,0,.07Z"/><path class="cls-15" d="M149.29,106.58h-.87l.17-2.57a3.82,3.82,0,0,0,.56-3.5c0-.09.08-.26.14-.38l1.37-2.9-.22-.2-1.27,1.05V97l-.94,1.46-.34-.49.38-1.87v-.18l.32-.19,1.38-.42-.31,1,.34.29a1.75,1.75,0,0,1,.18-.56,6.61,6.61,0,0,1,1-1.09c.11-.09.55,0,.65.2s0,.5,0,.76c-.54.21-1,.42-.34,1-.26.92-.53,1.84-.78,2.77-.33,1.27-.64,2.54-1,3.81v.34l-.17.52Z"/><path class="cls-15" d="M153.28,97.95l-.52,5a2.34,2.34,0,0,1-.67.38c-.73.13-.91.56-1,1.25a13.18,13.18,0,0,1-.45,2h-.87l.53-3.61a7.35,7.35,0,0,0,.51-1.12c.43-1.59.82-3.18,1.22-4.77Z"/><path class="cls-17" d="M150.68,106.57a13.18,13.18,0,0,0,.45-2c.05-.68.23-1.12,1-1.25a2.34,2.34,0,0,0,.67-.38c.15,1.2.77,2.35.35,3.61Z"/><path class="cls-18" d="M147.21,106.57h-1.39l0-1.89v-.32l.54-.53.53-.69.17.17-.12,1.65.27.06c.26-.5-.22-1.42.72-1.54Z"/><path class="cls-16" d="M147.21,106.57l.69-3.09h.52l.18.52-.17,2.57Z"/><path class="cls-12" d="M150.33,103l-.53,3.61h-.51l.34-2.22.17-.52v-.34Z"/><path class="cls-12" d="M146,103.32l.52-1.91.35-.88a3.28,3.28,0,0,1,0,.75c-.16.85-.35,1.7-.53,2.55l-.54.53Z"/><path class="cls-12" d="M145.8,104.69l0,1.89c-.12-.07-.34-.16-.33-.21C145.58,105.8,145.69,105.24,145.8,104.69Z"/><path class="cls-19" d="M167.47,96.55l.17-.33a3.89,3.89,0,0,0,.73-.25,8.8,8.8,0,0,0,.83-.62l-.35,1-.35.18-.69.52h-.35q0-.08,0-.17Z"/><path class="cls-12" d="M166.62,97.25l.7-.18-.19,1-.87.18Z"/><path class="cls-14" d="M170.2,99l-.49-.12Z"/><path class="cls-11" d="M168.17,97.42h-.35v-.35h0Z"/><path class="cls-11" d="M166.62,97.25l-.36,1-.22.31-.82-.32A1.22,1.22,0,0,1,166.62,97.25Z"/><path class="cls-20" d="M162.65,59.68l.15,0,.11.81.59-.44,2.08-.34h.86l-.34.87h-.17a.88.88,0,0,0-1.39.17l-.69.52-.16.53-.49,2.57,0,.4c-.68-.28-.69-.82-.54-1.42l-.17-1.9Z"/><path class="cls-19" d="M166.09,60.54l.34-.87a2.58,2.58,0,0,1,2.43-.17l-1.2.24,1.55.8a5.52,5.52,0,0,1-.68,0c-.48,0-1-.16-1.43-.17A5.31,5.31,0,0,0,166.09,60.54Z"/><path class="cls-19" d="M169.9,59.5H169C169.31,59.1,169.61,59.1,169.9,59.5Z"/><path class="cls-19" d="M166.09,59.67h0Z"/><path class="cls-11" d="M172.15,60.19V60l.53.17h-.52Z"/><path class="cls-21" d="M171.64,62.43a4.11,4.11,0,0,1,.51,2.62l-.67.83-.84,1.93-.22-1.39a1.41,1.41,0,0,0,.32-2.16l-.27.72c-1-.7-1-.69-1.44.4h-.18l-.35-.19-.35-.65c-.06-.51-.21-.93-.84-.89l.34-.35.36-.17.91.69.47-.68.61.42.55-.44.72.87.21-.12-.36-1.43Z"/><path class="cls-11" d="M166.09,60.54a5.31,5.31,0,0,1,1-.16c.48,0,1,.12,1.43.17a5.52,5.52,0,0,0,.68,0h.35l.17.17h.17l.52,1-.17.18h-1a3.81,3.81,0,0,0-.74-.78c-.75-.44-1.89-.07-2,.6l-2.61-.52.69-.52.15.52,1.24-.68Z"/><path class="cls-22" d="M170.25,61.92l.17-.18h.52l.7.7h-1.39Z"/><path class="cls-19" d="M170.94,61.74h-.52l-.52-1Z"/><path class="cls-15" d="M172.15,60.19h.52l-.23.46Z"/><path class="cls-19" d="M169.73,60.71l-.17-.17Z"/><path class="cls-12" d="M178.23,90.51c.23-.69.5-1.38.67-2.09.38-1.56.72-3.13,1.08-4.69v1.4l-.35,1.74,0,.34-.35,1.55-.34,1.74-.47,1.91-.35,1.73-.69,3.64-.35,1.9-.17.37c0-.48,0-1,0-1.44s.11-1.25.16-1.87a1,1,0,0,0,0-.16l.17-.19v-.7l1-4.85v-.33Z"/><path class="cls-12" d="M176.81,100.37l-.17.86C176.42,100.89,176.27,100.56,176.81,100.37Z"/><path class="cls-23" d="M163.29,98.34c-.75.08-1-.26-.94-1.17,0-.31.26-.61.24-.9a3,3,0,0,1,.86-2.47c.09-.09,0-.33,0-.5,0-.55.26-1,.79-.84a1.22,1.22,0,0,1,.72.94,2.82,2.82,0,0,0,.31,2.21c.09.14-.09.59-.27.76a2.68,2.68,0,0,1-1.17.79C163,97.31,163.16,97.81,163.29,98.34Z"/><path class="cls-21" d="M157.77,87.23l-.46,0-.15,0-.07-1,.36-.72-.85-.41-.37-.51a.69.69,0,0,0,0-.16l.07-.2a3.3,3.3,0,0,0,.51.25c.52.15,1.1.5,1.55.38A17.73,17.73,0,0,0,161,83.7l.15.35-1.8,1.24h-.15l-.85,0Z"/><path class="cls-24" d="M166.27,92.58a1,1,0,0,0-.64-1.06,3.85,3.85,0,0,1-.75-.68c.51-.05.88-.21.66-.84l.39-.2a3.54,3.54,0,0,0,.48.76c.33.31.73.62,1,0l.57-.19V91l-.13.36-.57.71-1,.5Z"/><path class="cls-14" d="M164,89.94c-.5-.66-1-1.32-1.51-2a3.64,3.64,0,0,0-.48-.43l0-.66.34-.4.58.06c.06,0,.17.08.18.14.12.5,0,1.15.76,1.26.1,0,.13.35.23.52a2,2,0,0,0,.34.34l0,.17C164.32,89.28,163.63,89.36,164,89.94Z"/><path class="cls-19" d="M169.56,93.09h.16l.62-.71-.2-.18-.42.36a1.91,1.91,0,0,0-.41-.4,3.25,3.25,0,0,0-.66-.19l1.06-.5c.37.87.48-.2.67-.09.72.39,1-.32,1.42-.55a7.3,7.3,0,0,1-.25.77c-.31.67-.63,1.34-.95,2l-.7.17Z"/><path class="cls-12" d="M169.56,93.09l.34.7q0,.09,0,.17l-.35.35-.18.34-.17.69h0a8.8,8.8,0,0,1-.83.62,3.89,3.89,0,0,1-.73.25v-.35l.35-.52Z"/><path class="cls-19" d="M162,86.87l0,.66-.6,0q0-.52,0-1v-.33l-.34-1,.18-.9a4,4,0,0,1,.83.38.87.87,0,0,1,.19.53C161.36,85.6,162,86.29,162,86.87Z"/><path class="cls-14" d="M169.71,91.49l-1.06.5-.47,0-.31-.67L168,91l.35-.13,1.18-.46.37.61Z"/><path class="cls-25" d="M164,89.94c-.39-.57.3-.65.45-1l.36.18.71.87c.23.63-.15.79-.66.84l-.24-.34-.12-.12Z"/><path class="cls-17" d="M159.16,85.29h.15l.9.19v.34c0,.49-.21,1-.73.8S159,85.8,159.16,85.29Z"/><path class="cls-16" d="M160.2,85.82v-.34l.87-.36.34,1Z"/><path class="cls-26" d="M167.87,91.37l.31.67-.88,0Z"/><path class="cls-12" d="M169.72,92.57l.42-.36.2.18-.62.71Z"/><path class="cls-16" d="M161.42,86.5q0,.52,0,1C161,87.34,161,87.32,161.42,86.5Z"/><path class="cls-19" d="M168,95.35l-.35.52Z"/><path class="cls-12" d="M167.47,96.55v0Z"/><path class="cls-24" d="M166.26,92.57l0,.06,0-.06Z"/><path class="cls-24" d="M164.52,90.39l.12.12Z"/><path class="cls-15" d="M157.26,90.67l.17-.17Z"/><path class="cls-15" d="M157.43,90.15l.17-.17Z"/><path class="cls-27" d="M157.31,87.2c0,.67,0,1.35-.13,2a4.77,4.77,0,0,1-.36,1l-2,1c-.11-.56-.38-.67-.83-.31a3.59,3.59,0,0,1-1,.74c-1.3.38-2.62.67-4.13,1l-.82-1.6-.65-1.27c0-.46.2-1-.44-1.25l1.79-2.15.06,0v-.06l0,.13.47-.42.34-.38H150c.48,0,1.07.2,1.19-.57l.73-1,.8-.72.94-.28.5.13.18,1.2.33.54h0l.57.66.35.31a7.15,7.15,0,0,0,.63.64c.3.24.64.45,1,.67Z"/><path class="cls-28" d="M147.37,89.8l.65,1.27.82,1.6c1.51-.37,2.83-.66,4.13-1a3.59,3.59,0,0,0,1-.74c.46-.36.72-.25.83.31l.07.22h0l-.41.45-.35.51-.17.18-.3.21-4,.67-.33-.06a.78.78,0,0,0-1.24-.26l-.44-.47-.45-2.5Z"/><path class="cls-20" d="M151.88,95.87c0-.26.08-.57,0-.76s-.55-.29-.65-.2a6.61,6.61,0,0,0-1,1.09,1.75,1.75,0,0,0-.18.56l-.34-.29.31-1-1.38.42v-.2l.55-1.53,3.26-.35v.55l.69,0-.92,2.12Z"/><path class="cls-23" d="M151.88,95.87l.3.39.92-2.12.87-.35h0q0,.6,0,1.21l-.51.35c0,.76.07,1.51.07,2.27,0,.11-.16.22-.25.33l-1.22-.87-.52-.17C150.83,96.29,151.35,96.07,151.88,95.87Z"/><path class="cls-29" d="M152.41,93.62l-3.26.35-.55-.32v-.31l.73.06.33.06a8.06,8.06,0,0,0,1.13,0c.9-.1,1.8-.24,2.7-.37Z"/><path class="cls-30" d="M153.46,93.12c-.9.12-1.79.27-2.7.37a8.06,8.06,0,0,1-1.13,0l4-.67Z"/><path class="cls-14" d="M154.9,91.43l-.07-.22,2-1-.45.61-.75.49a.1.1,0,0,0-.09.06Z"/><path class="cls-29" d="M154.9,91.43l.62-.06-.87.51.24-.45Z"/><path class="cls-29" d="M155.62,91.3l.75-.49Z"/><path class="cls-20" d="M153.45,95.35,154,95Z"/><path class="cls-14" d="M154.89,91.43l-.24.45h-.17Z"/><path class="cls-23" d="M153.75,95.9l-.06,0a.22.22,0,0,1,0-.07l.06,0A.22.22,0,0,1,153.75,95.9Z"/><path class="cls-23" d="M154,93.79l0-.07,0,.07Z"/><path class="cls-29" d="M154,92.58l.17-.18Z"/><path class="cls-18" d="M148.6,104l-.18-.52.21-1.24c-.69-.06-1-.17-.43-.76.12-.12,0-.48,0-.72,0,0-.29,0-.45,0v-.18l-.18-1.39.35-1.21.34.49.94-1.46v1.1L150.45,97l.22.2-1.37,2.9c-.06.13-.18.29-.14.38A3.82,3.82,0,0,1,148.6,104Z"/><path class="cls-19" d="M151.54,96.9l.52.17c-.4,1.59-.79,3.19-1.22,4.77a7.35,7.35,0,0,1-.51,1.12l-.52.52c.32-1.27.62-2.55,1-3.81C151,98.75,151.28,97.83,151.54,96.9Z"/><path class="cls-12" d="M148.08,96.23l.2-.16-.39,1.87-.35,1.21-.67,1v-.51Z"/><path class="cls-19" d="M149.81,103.83l-.17.52Z"/><path class="cls-12" d="M148.28,95.89l.32-.39v.2Z"/><path class="cls-31" d="M147.73,100.72c.16,0,.44,0,.45,0,0,.24.13.6,0,.72-.59.59-.25.71.43.76l-.21,1.24h-.52c-.94.13-.46,1-.72,1.54l-.27-.06.12-1.65v-.69h0c.11,0,.31,0,.32-.07C147.5,101.95,147.62,101.33,147.73,100.72Z"/><path class="cls-16" d="M146.89,100.19l.67-1,.18,1.39-.69,2.08h0l-.17.52-.53.69c.18-.85.38-1.7.53-2.55a3.28,3.28,0,0,0,0-.75Z"/><path class="cls-13" d="M146.87,103.14l.17-.52v.69Z"/><path class="cls-13" d="M170.6,93.62c.32-.67.64-1.33.95-2a7.3,7.3,0,0,0,.25-.77h0c.17-.1.42-.16.5-.31.3-.57.56-1.16.81-1.75a8.13,8.13,0,0,0,.26-.87l.17-.17c.48-.32.41-.73.16-1.16l0-.09a1.58,1.58,0,0,0,1-2l-.94,1.16-.5-1.68-.67-1.71a8.54,8.54,0,0,0-1,.65c-.14.12-.29.48-.23.55.68.76.26,1.59.21,2.39-.11-.15-.35-.38-.31-.43.36-.5-.08-.72-.36-.81s-.58.11-.87.19c-.26-.9-.91-.23-1.37-.34a.74.74,0,0,0-.21-1.11,7.23,7.23,0,0,1-1-1.2.1.1,0,0,1,.06-.14l.39-.22-.51-.28-.78.2c-.7-.78-.77-.77-1.06,0l-.31.12-.38-.74.22-.27-.22-.07a.55.55,0,0,1,0-.14l.48-.25h.17l0,0a1.73,1.73,0,0,0,.53-.17c.66-.5,1.28-1,2-1.53.12-.08.42,0,.58.09a1.56,1.56,0,0,1,.37.39A11.72,11.72,0,0,1,170,76.74a2.73,2.73,0,0,0-.14-3.57h-1.59c.25-.17.49-.36.74-.51.5-.3,1-.58,1.53-.87l.89-.19h0l.14.19.06.52a.24.24,0,0,0,0,.15l.14.2,0,.51.13.36a.23.23,0,0,1,0,.15l.14.2.37.49.17.05.33.25v0c0,.84.62.49,1,.57a.24.24,0,0,1,0,.15l.34.71-.17.53c-.28.84-.55,1.66.3,2.37.24.2.58.61.52.81-.3.93.46,1.3.82,2l1-1.9,1.19.3c-1.05,1-.79,1.88-.68,2.8a7.49,7.49,0,0,1,0,1.57c-.07.67-.2,1.33-.31,2l.22.1,1.24-1.33.28.15v-.93l.17-.7c.12.25.36.52.33.75-.27,1.57-.6,3.14-.92,4.71,0,.08-.15.14-.4.38.06-.53.1-.87.13-1.21,0-.56-.15-.78-.69-.46-.35.63-1.27,1-.8,2l-1.43,2.4.49.32v.35l-.87,2.08v.52h-.35c-.83,0-1.57.68-2.5.22-.38-.18-1,.09-1.49.18-.07,0-.11.19-.17.29l-.69.17-.7-.18.35-1h0l.35-.35,2,.2Z"/><path class="cls-11" d="M170.25,96.39c.05-.1.1-.27.17-.29.5-.09,1.11-.37,1.49-.18.94.46,1.67-.18,2.5-.22l.14,3.06-1.87-.47-.17-.17a3.43,3.43,0,0,0-1.83-.86C170.52,97.25,170.39,96.69,170.25,96.39Z"/><path class="cls-11" d="M176.83,79.94l-1,1.9c-.37-.72-1.13-1.09-.82-2,.06-.2-.27-.6-.52-.81-.85-.71-.58-1.53-.3-2.37A6.52,6.52,0,0,0,176.83,79.94Z"/><path class="cls-11" d="M175.62,92.75l-.49-.32,1.43-2.4c-.47-.92.44-1.32.8-2A5,5,0,0,1,175.62,92.75Z"/><path class="cls-12" d="M180.1,83.23l-.13.18a2.56,2.56,0,0,1-.48-.61c-.49-1.34-.95-2.68-1.41-4a1.78,1.78,0,0,1,0-.42l.89,1.24Z"/><path class="cls-31" d="M178.22,90.84l-1,4.85c.11-1,.16-2.1.35-3.13A9,9,0,0,1,178.22,90.84Z"/><path class="cls-31" d="M178.9,83.92l-.17.7c-.42,0-1-.08-.8-.65.15-.4.14-1.19,1-1.09v1Z"/><path class="cls-11" d="M174.75,95.17l.87-2.08a2.16,2.16,0,0,1,.11.67,11,11,0,0,1-.36,1.25Z"/><path class="cls-11" d="M168.86,96.38l.7.18.37.84-1.41-.15v-.69Z"/><path class="cls-20" d="M174.4,75.28l.91,1-.9-.17-.34-.71Z"/><path class="cls-22" d="M175.91,97.52l.08-.87h.26l0,.85Z"/><path class="cls-13" d="M168.51,96.56v.69l-.35.17-.35-.35Z"/><path class="cls-20" d="M175.44,76.31l.68.34.38.49C175.95,77.13,175.49,77,175.44,76.31Z"/><path class="cls-20" d="M176.5,77.14l.66.54Z"/><path class="cls-13" d="M178.91,83.4v0Z"/><path class="cls-31" d="M178.22,90.51l-.14-.19.14.19Z"/><path class="cls-22" d="M177.17,96.39l-.17.19Z"/><polygon class="cls-11" points="174.75 95.69 174.82 95.73 174.79 95.77 174.75 95.69"/><path class="cls-13" d="M172.5,98.12l.17.17Z"/><path class="cls-12" d="M177.53,77.88l.2.14Z"/><path class="cls-29" d="M163.84,61.23l2.61.52h.18l1,1.56-.34.35-.7.17-.62-.91c-.62.88-1.3.35-2,.2a5.85,5.85,0,0,0,.05-1c0-.13-.26-.23-.4-.34Z"/><path class="cls-29" d="M163.14,64.73l0-.4,1.35,1.06c.09.39.38,1,.22,1.14a1.43,1.43,0,0,0,0,2l.46-.87h.17c.08.28.1.77.24.8.75.18.7.69.64,1.24l-.19,0-.33,0L164,68.33l-.32-.86V66.08a.14.14,0,0,1,0-.14l-.19-.9h-.14Z"/><path class="cls-32" d="M164.53,65.39l-1.35-1.06.49-2.57c.14.11.39.21.4.34a5.84,5.84,0,0,1-.05,1,1.49,1.49,0,0,0,.28.36c.36.25.73.46,1.1.69l-1,.08.36,1.12Z"/><path class="cls-19" d="M165.92,60.54l-1.24.68-.15-.52A.88.88,0,0,1,165.92,60.54Z"/><path class="cls-32" d="M166.61,63.83l.7-.17c.63,0,.78.38.84.89l-1.19.16.18.6-.55.25-.61.53-1.1-.7,1.25-.55-.56-.66Z"/><path class="cls-33" d="M169,65.39c.4-1.09.45-1.11,1.44-.4l.27-.72a1.41,1.41,0,0,1-.32,2.16Z"/><path class="cls-29" d="M170.25,61.92v.52l-.87.7-.47.68-.91-.69.35-.68.85-.53Z"/><path class="cls-32" d="M168.35,62.45l-.35.68-.36.17-1-1.56a1.09,1.09,0,0,1,1.33-.17C168.4,61.81,168.39,62.09,168.35,62.45Z"/><path class="cls-34" d="M169,65.39l1.39,1,.22,1.39-.19.68-.38-.18a2.22,2.22,0,0,0-1-2.06l-.17-.88Z"/><path class="cls-31" d="M169.38,63.14l.87-.7h.86l.36,1.43-.21.12-.72-.87-.55.44Z"/><path class="cls-26" d="M167.14,65.3l-.18-.59,1.19-.16.35.65-.86.74Z"/><path class="cls-13" d="M170.44,68.5l.19-.68.84-1.93v1.06a3,3,0,0,1-.21.6c-.2.34-.45.65-.67,1A.44.44,0,0,0,170.44,68.5Z"/><path class="cls-29" d="M167.64,65.94l.86-.74.35.19.17.88h-1.37Z"/><path class="cls-21" d="M168.35,62.45c0-.37.05-.64-.39-.87a1.09,1.09,0,0,0-1.33.17h-.18c.13-.67,1.27-1,2-.6a3.81,3.81,0,0,1,.74.78Z"/><path class="cls-35" d="M156.26,84.25l-.07.2-.62.73-.72-1.32-.62-1.12-1.27,0-.55-.58V78.9l-.52-.34-.8-1.54-.41.67-.52-1.21V75.6a1.37,1.37,0,0,0,.53-.1,3.37,3.37,0,0,0,.62-.59c-.5-.6-.11-1,.28-1.39.12-.13.08-.39.11-.59l-.21-.13c-.25.24-.48.5-.74.72a4.19,4.19,0,0,1-.58.35V73.5l3.1-2.75c.26,0,.61.22.54-.32l.33,0,0,.54.17.17.35-.35.36-.37.14,0h.23a.25.25,0,0,1,.15,0l.2.14.32,0,.35.32a7.19,7.19,0,0,1,.3.71,2.3,2.3,0,0,1,0,.51c-.86-.2-.59.61-.9,1.17l-1-1.5-.21.1v.93a1.2,1.2,0,0,0-.14.4c.1,2.51.18,5,.34,7.53,0,.37.43.71.66,1.07l-.39,1.05.74.21Zm-2.91-12.86-.13-.18c-.24.19-.62.34-.69.58a2,2,0,0,0,.28,2.05Zm.68,3.67-.27,0c0,.7,0,1.41,0,2.1s.17,1.35.26,2Zm-1.89,2.49.23,0a8.56,8.56,0,0,0-.22-2.64l-.32,0Z"/><path class="cls-33" d="M156.26,84.25l-.39-1.14-.74-.21.39-1.05,0-.49c.59.06.8-.28.83-.81.06-1,.11-1.92.22-2.88a10.27,10.27,0,0,1,.33-1.36c.34-.23.69-.65,1-.65.5,0,.95.2,1.18-.45,0,0,.35,0,.5,0a3.34,3.34,0,0,1,.55.34l-.86.69v1.55c.36-.53.64-.67.74,0s.08,1.08.16,1.62c.05.35.07.84.67.5.09.54-.19.8-.69.81a5.54,5.54,0,0,1-.87-.1h0l-.14-.59H159a9.4,9.4,0,0,1-.16,1,7,7,0,0,1-.33.81c0-.94,0-1.88,0-2.82a1.88,1.88,0,0,0-.08-.74,10.32,10.32,0,0,0-.64-1.09l.12-.82-.31-.08-.36.68a7.7,7.7,0,0,0-.3,1.06c-.15,1-.31,2.1-.36,3.15,0,.71.41,1.45-.14,2.14,0,0,.2.29.3.45h0a1.16,1.16,0,0,0,1.39.86,8.62,8.62,0,0,0,1.38-.44c.29-.14.48-.47.72-.71l.7-.24,0,.5a17.73,17.73,0,0,1-2.64,1.17c-.45.12-1-.22-1.55-.38A3.3,3.3,0,0,1,156.26,84.25Z"/><path class="cls-30" d="M161,83.7l0-.5a6.94,6.94,0,0,0,.59-.48,5.47,5.47,0,0,0,.43-.55l.43.09.08.28-.4.91.61.51c0,.37.05.74,0,1.11,0,.2-.08.53-.19.56-.67.19-.33.52-.16.83l-.34.4c0-.58-.64-1.27.27-1.73a.87.87,0,0,0-.19-.53,4,4,0,0,0-.83-.38L161.1,84Z"/><path class="cls-19" d="M154.23,82.74l.62,1.12.72,1.32.62-.73a.7.7,0,0,1,0,.16l.37.51.85.41-.36.72-1.52-.31-.35-.31-.57-.66h0l-.33-.54-.18-1.2Z"/><path class="cls-15" d="M161.1,84l.15.17-.18.9-.87.36-.9-.19Z"/><path class="cls-14" d="M155.56,85.93l1.52.31.07,1c-.32-.22-.66-.42-1-.67A7.15,7.15,0,0,1,155.56,85.93Z"/><path class="cls-35" d="M156.59,85.12l-.37-.51Z"/><path class="cls-11" d="M168,90.32l-.57.19-.32-.18.19-.75.76-.95,1.12-.41.09.42a5,5,0,0,0,1.1-.44,4.42,4.42,0,0,0,.73-.84l-.15-.24h0l.83.09.36.18v.51q0,.08,0,.17c-.15.18-.29.38-.45.55a2.5,2.5,0,0,1-.55.48c-.46.26-.95.47-1.42.7Z"/><path class="cls-25" d="M167.13,90.33l.32.18c-.31.67-.72.36-1,0a3.54,3.54,0,0,1-.48-.76l0-.86.9-1c0,.16.14.4.07.48C166.19,89.14,166.62,89.74,167.13,90.33Z"/><path class="cls-17" d="M168,90.32l1.71-.52v.34l-.19.28-1.18.46-.34-.21Z"/><path class="cls-18" d="M165.88,88.94l0,.86-.39.2-.71-.87Z"/><path class="cls-11" d="M168,90.67l.34.21L168,91Z"/><path class="cls-18" d="M164.42,88.79a2,2,0,0,1-.34-.34c-.1-.16-.13-.5-.23-.52-.81-.11-.64-.77-.76-1.26,0-.06-.12-.09-.18-.14a4.46,4.46,0,0,1,2-3l.35.55.72-.12-.06.84-.66,0h-1.13l.62,1.39c.06.68.15,1.36.15,2C164.85,88.4,164.57,88.59,164.42,88.79Z"/><path class="cls-36" d="M164.87,83.5a4.46,4.46,0,0,0-2,3l-.58-.06c-.17-.32-.51-.64.16-.83.11,0,.18-.36.19-.56,0-.37,0-.74,0-1.11l.48-1.08.33.57.16.26.23-.28.47-.92.86-.11.08-.51.31-.13,1.06,0,.78-.2.12.5a.1.1,0,0,0-.06.14l-.92.69a.09.09,0,0,0-.12-.08l-.87.18Z"/><path class="cls-23" d="M164.42,88.79c.15-.19.43-.38.43-.58,0-.68-.09-1.36-.15-2l.51-.29.47,0,1.61,1.07v.64l-.52.34-.9,1-1.05.2-.36-.18Zm1.15-2.33c-.12.18-.26.31-.23.37a1.37,1.37,0,0,0,.3.35c.08-.09.24-.2.23-.26A1.71,1.71,0,0,0,165.58,86.46Z"/><path class="cls-23" d="M170.6,93.62l1,1.58-2-.2-.18-.35.18-.34.35-.35q0-.09,0-.17Z"/><path class="cls-16" d="M169.71,91.49l.2-.46.37-.05c.28,0,.63.1.81,0a6.1,6.1,0,0,0,.88-1l-.17.88h0c-.45.23-.71.94-1.42.55C170.18,91.29,170.07,92.36,169.71,91.49Z"/><path class="cls-19" d="M169.38,94.65l.18.35-.35.35Z"/><path class="cls-19" d="M169.9,94l-.35.35Z"/><path class="cls-26" d="M170.27,91l-.37.05-.37-.61.19-.28.71-.13Z"/><path class="cls-22" d="M148.72,86.4l-1.79,2.15-.58.56h-.48l-.58-1.91-.15-1.56,1,.28.38,1.13.16-.06-.09-1.3.6-.05,1.39-.17v.34C148.13,86.12,148.25,86.3,148.72,86.4Z"/><path class="cls-19" d="M152.41,82.18l.55.58,0,.28-.22.33-.8.72-.72.34-.18-.36c.09-.5-.37-1.81-.68-1.86-.63-.08-1.26-.12-1.88-.19s-.57.27-.38.67l-.84-.57c.25-.16.49-.43.76-.46.77-.11,1.55-.13,2.33-.18a4.1,4.1,0,0,0,.54.61c.12.09.33.06.5.08C151.72,82.32,152.07,83,152.41,82.18Z"/><path class="cls-23" d="M148.6,85.47l-1.39.17L147,85c.08-.15.12-.36.24-.43a2.33,2.33,0,0,1,2.88.57l-.51.56-.34.38-.18,0-.35-.19h0l.18-.53-.23-.19Z"/><path class="cls-25" d="M146.35,89.11l.58-.56c.65.24.41.79.44,1.25l-.18.37-.89.7-.32-.5Z"/><path class="cls-22" d="M151.2,84.44l.72-.34-.73,1-.66.11Z"/><path class="cls-21" d="M152.93,83l0-.28,1.27,0-.09.48-.5-.13Z"/><path class="cls-36" d="M150.52,85.2l.66-.11c-.12.77-.71.56-1.19.57l.5-.45Z"/><path class="cls-22" d="M150.49,85.21l-.5.45h-.34l.51-.56Z"/><path class="cls-36" d="M152.93,83l.72.05-.94.28Z"/><path class="cls-14" d="M154.65,85l.57.66Z"/><path class="cls-23" d="M148.72,86.4c-.46-.11-.59-.29-.13-.59h.18v.51h0v.06Z"/><path class="cls-14" d="M154.32,84.42l.33.54Z"/><path class="cls-36" d="M149.12,86l.18,0-.47.42a.29.29,0,0,1-.07-.13Z"/><path class="cls-23" d="M148.77,86.33a.29.29,0,0,0,.07.13l0-.13h0Z"/><path class="cls-19" d="M146,90.39l.32.5,1.34,1.8.44.47.51.2v.31l-1.55.51a1.89,1.89,0,0,1-2.11-1.76l.17-1.9-.17-1.74.06-1,.29-.51.58,1.91C146,89.53,145.24,90,146,90.39Zm.83,2.59.24-.3-1.11-1-.2.19-.15-1.1a2.1,2.1,0,0,0,.4,2.33l-.09-.82Z"/><path class="cls-30" d="M147.63,92.68l-1.34-1.8.89-.7Z"/><path class="cls-30" d="M148.59,93.34l-.51-.2a.78.78,0,0,1,1.24.26Z"/><path class="cls-13" d="M147,102.62l.69-2.08v.18c-.12.61-.23,1.23-.37,1.84C147.35,102.6,147.15,102.6,147,102.62Z"/><path class="cls-23" d="M168.32,73.17h1.59a2.73,2.73,0,0,1,.14,3.57A11.72,11.72,0,0,0,169,79.16a1.56,1.56,0,0,0-.37-.39c-.17-.09-.47-.18-.58-.09-.67.48-1.3,1-2,1.53a1.74,1.74,0,0,1-.53.17l1.16-1.75-.43-.12a1.6,1.6,0,0,0-.06-1.71c-.32-.63-.81-1.27-.45-2.07.68-.16,1.37-.3,2-.51.11,0,.15-.34.22-.52Z"/><path class="cls-37" d="M168.32,73.17l-.32.54-.37,0c-.12-.19-.22-.51-.37-.55-1.19-.25-2.39-.44-3.59-.65l-.16-.34v-.87l1.14.19L164.54,70l1,.72.16.19a2.34,2.34,0,0,0,2.25,1,3.24,3.24,0,0,0,1.13-.9c.1-.13-.14-.53-.22-.81l-.16,0c-.2-.07-.4-.13-.59-.22a5.06,5.06,0,0,1-.46-.27,1.73,1.73,0,0,0,1.88-1.36l.51,0,.38.18a.44.44,0,0,1,.17,0,.18.18,0,0,0,0,.16l0,.86,0,1.37v.89c-.51.29-1,.57-1.53.87C168.81,72.81,168.57,73,168.32,73.17Z"/><path class="cls-30" d="M168.7,84.47c.46.11,1.11-.56,1.37.34l-.16,1.25c-.53.25-.68.49,0,.82.2.11.29.44.43.67l-.91.13c-1.44-1.06-1.44-1.06-.89-2l0-1Z"/><path class="cls-25" d="M173.34,84l.5,1.68-.1.83,0,.09-.53.42-.5-1.7-.16-.24-.13-.13c-.15-.56-.57-1.11-.28-1.58Z"/><path class="cls-23" d="M173.34,84l-1.23-.63c-.29.47.13,1,.28,1.58a2.71,2.71,0,0,0-.37.69c-.11.52-.15,1.05-.21,1.58l-.83-.09.64-1.25c0-.8.47-1.63-.21-2.39-.06-.07.09-.43.23-.55a8.54,8.54,0,0,1,1-.65Z"/><path class="cls-25" d="M171.61,85.86,171,87.11h0c-.08-.11-.23-.22-.22-.31.1-.73-.09-.91-.83-.75l.16-1.25c.29-.07.63-.27.87-.19s.72.31.36.81C171.27,85.48,171.5,85.71,171.61,85.86Z"/><path class="cls-23" d="M168.7,84.47l-.15.15L168,84.2c.58-.25.15-.54,0-.81l-.72-.09H167l-.43-.46.92-.69a7.23,7.23,0,0,0,1,1.2A.74.74,0,0,1,168.7,84.47Z"/><path class="cls-19" d="M172.67,85.3l.5,1.7.53-.42c.25.43.32.83-.16,1.16h0c-.16-.09-.35-.29-.47-.25a5.32,5.32,0,0,0-.91.43v-.51l.34-2.09Z"/><path class="cls-20" d="M163.47,83.44l-.33-.57a.53.53,0,0,0,0-.17l1.42-1.56h.35l.38.74-.08.51-.42-.26h0v0l-.3-.22-.12.29-.06.27-.47.92Z"/><path class="cls-32" d="M166.25,78.51l.43.12-1.16,1.75,0,0h-.17l-.48.25,0-.45.21-.45.06-.17.26-.32.38-.37,0,0Z"/><path class="cls-19" d="M171.8,90.84,172,90a.75.75,0,0,0,0-.12l.7-1.42.69-.52h0a8.15,8.15,0,0,1-.26.87c-.25.59-.51,1.18-.81,1.75C172.22,90.68,172,90.74,171.8,90.84Z"/><path class="cls-19" d="M173.74,86.49l.1-.83.94-1.16A1.58,1.58,0,0,1,173.74,86.49Z"/><path class="cls-37" d="M166.62,81.73l-1.06,0C165.85,81,165.92,81,166.62,81.73Z"/><path class="cls-12" d="M170.6,70.9l.88.7-.89.19Z"/><path class="cls-20" d="M173,74.69l1,.57C173.63,75.18,173,75.53,173,74.69Z"/><path class="cls-37" d="M167.53,82l-.12-.5.51.28Z"/><path class="cls-23" d="M164.88,81.15h-.32l.09-.17.24-.16.22.07Z"/><path class="cls-33" d="M164.89,80.8l-.24.16.2-.75,0,.45A.55.55,0,0,0,164.89,80.8Z"/><path class="cls-12" d="M171.83,73.17l.13.36Z"/><path class="cls-20" d="M172.84,74.4l.16.26-.33-.25A.19.19,0,0,1,172.84,74.4Z"/><path class="cls-19" d="M173.54,87.73l-.17.17h0l.17-.17Z"/><path class="cls-23" d="M165.38,80.41h0Z"/><path class="cls-12" d="M172,73.67l.14.2Z"/><path class="cls-12" d="M171.64,72.46l.14.2Z"/><path class="cls-12" d="M171.47,71.6l.14.19Z"/><path class="cls-21" d="M166.61,63.83l-1,.34h-.17c-.37-.23-.74-.45-1.1-.69a1.49,1.49,0,0,1-.28-.36c.66.16,1.34.68,2-.2Z"/><path class="cls-24" d="M169.55,68.34a1.73,1.73,0,0,1-1.88,1.36q0-.25,0-.5l.13-.69.73-.11c-.85-1.25-.85-1.25-1.87-.56l.3.51.05.83-.4.55h-.17l-.17,0c.07-.55.12-1.06-.64-1.24-.14,0-.16-.52-.24-.8.24-.21.46-.56.73-.61A5.81,5.81,0,0,1,167.9,67C169,67.11,169.64,67.18,169.55,68.34Z"/><path class="cls-18" d="M169.55,68.34c.1-1.16-.56-1.24-1.65-1.38a5.81,5.81,0,0,0-1.77.06c-.27.05-.49.4-.73.61h-.17c-.26-1,.49-1.19,1.18-1.4l1.23,0H169a2.22,2.22,0,0,1,1,2.06Z"/><path class="cls-20" d="M166.44,69.73h.17a2,2,0,0,0,2.1.48l.16,0a1.15,1.15,0,0,1-1.23,1,13.93,13.93,0,0,1-1.92-.31l-.16-.19c.22-.33-1-.92.19-1.06l.33,0,.21.27Z"/><path class="cls-21" d="M166.41,66.24c-.7.21-1.45.37-1.18,1.4l-.46.87a1.43,1.43,0,0,1,0-2c.16-.18-.14-.75-.22-1.14h.35l1.1.7.61-.53Z"/><path class="cls-16" d="M163.47,68.65a.6.6,0,0,1,0-.15l.49-.17,1.75,1.37c-1.21.15,0,.74-.19,1.06l-1-.72q0-.08,0-.16l-.52-.7Z"/><path class="cls-17" d="M164,68.33l-.49.17,0-.33.14-.18,0-.52Z"/><path class="cls-17" d="M163.69,67.11l-.05-.17,0-.86Z"/><path class="cls-17" d="M163.65,65.95l-.19-.9Z"/><path class="cls-11" d="M166.44,69.73l-.14.26-.21-.27.19,0Z"/><path class="cls-33" d="M164.88,65.38h-.17l-.36-1.12,1-.08h.17l.56.66Z"/><path class="cls-31" d="M166.41,66.24l.18-.69.55-.25.49.64v.31Z"/><path class="cls-23" d="M156.92,76.31a10.27,10.27,0,0,0-.33,1.36c-.11,1-.15,1.92-.22,2.88,0,.53-.24.86-.83.81-.06-.93-.13-1.86-.19-2.79,0-.49.21-.93,0-1.5a20.52,20.52,0,0,1-.3-2.93,6.83,6.83,0,0,0-.44-1.3V71.9l.21-.1,1,1.5c.31-.56,0-1.37.9-1.17L157,73.2c.29-.34.55-.54.64-.8a12.47,12.47,0,0,0,.35-1.48l.87.69c-.17.1-.41.15-.51.3-.62.9-.34,2-.52,3l.16,0v.34C157,75,157,75.73,156.92,76.31Z"/><path class="cls-31" d="M150.16,75.6v.87c-.5.66-.26,1.15.34,1.56q0,.69,0,1.38c-.15.22-.24.57-.45.65a15.65,15.65,0,0,0-2.28.8c-.48.29-1.55-.18-1.43,1l-.71.69.18-1.24a.18.18,0,0,1,0-.14l.15-.2a.18.18,0,0,1,0-.14l.15-.2a.18.18,0,0,1,0-.14l.14-.2h0c.92-.47,1.09-1.47,1.58-2.24l.18-.17c.26-.12.65-.17.76-.37.29-.51.43-1.1.7-1.62C149.62,75.71,149.94,75.69,150.16,75.6Z"/><path class="cls-12" d="M152.41,82.18c-.35.78-.69.14-1,0l-.53-1.39v-.34a1.75,1.75,0,0,0-.17-2.6q0-.09,0-.17l.41-.67.8,1.54.52.34v.34q0,.43,0,.87Z"/><path class="cls-18" d="M149.28,74.37l.37-.5h.5a4.19,4.19,0,0,0,.58-.35c.26-.22.5-.48.74-.72l.21.13c0,.2,0,.47-.11.59-.39.42-.78.79-.28,1.39a3.37,3.37,0,0,1-.62.59,1.37,1.37,0,0,1-.53.1c-.21.08-.53.11-.61.26-.27.52-.41,1.11-.7,1.62-.12.2-.5.25-.76.37v-.72a.21.21,0,0,1,0-.15Z"/><path class="cls-12" d="M154.66,72.83a6.83,6.83,0,0,1,.44,1.3,20.52,20.52,0,0,0,.3,2.93c.16.57-.08,1,0,1.5.06.93.12,1.86.19,2.79l0,.49c-.23-.36-.63-.7-.66-1.07-.16-2.51-.24-5-.34-7.53A1.2,1.2,0,0,1,154.66,72.83Z"/><path class="cls-11" d="M157.95,70.93a12.47,12.47,0,0,1-.35,1.48c-.09.26-.36.45-.64.8l-.21-1.06a2.3,2.3,0,0,0,0-.51,7.19,7.19,0,0,0-.3-.71h.69l.53-.2h.33Z"/><path class="cls-18" d="M153.35,71.39l-.54,2.46a2,2,0,0,1-.28-2.05c.07-.24.45-.39.69-.58Z"/><path class="cls-12" d="M154,75.06v4.11c-.09-.63-.21-1.3-.26-2s0-1.4,0-2.1Z"/><path class="cls-17" d="M152.14,77.55l-.31-2.62.32,0a8.56,8.56,0,0,1,.22,2.64Z"/><path class="cls-18" d="M150.68,77.68q0,.09,0,.17l-.18.18c-.6-.41-.84-.9-.34-1.56Z"/><path class="cls-23" d="M157.08,70.93h-.69L156,70.6l.17-.05.87.06Z"/><path class="cls-19" d="M152.41,80.11q0-.43,0-.87Q152.41,79.67,152.41,80.11Z"/><path class="cls-23" d="M154.34,70.4h.33v.37l-.35.35-.17-.17,0-.54h.22Z"/><path class="cls-19" d="M152.41,78.9l-.52-.34Z"/><path class="cls-12" d="M154.66,70.75v-.37H155Z"/><path class="cls-12" d="M153.25,70.75l.54-.32C153.87,71,153.51,70.78,153.25,70.75Z"/><path class="cls-12" d="M150.16,73.87h-.5l.49-.37Z"/><path class="cls-12" d="M155.53,70.43l.2.14Z"/><path class="cls-12" d="M155.15,70.4h0Z"/><path class="cls-12" d="M154.14,70.93l.17.17Z"/><path class="cls-38" d="M157.79,77.16a10.32,10.32,0,0,1,.64,1.09,1.88,1.88,0,0,1,.08.74c0,.94,0,1.88,0,2.82a9.75,9.75,0,0,1,.31,1.91c0,.3-.44.59-.68.88a1.16,1.16,0,0,1-1.39-.86l.15-.35-.12,0,0,.39c-.11-.15-.34-.4-.3-.45.56-.69.11-1.43.14-2.14,0-1.05.21-2.11.36-3.15a7.66,7.66,0,0,1,.3-1.06Z"/><path class="cls-26" d="M158.12,84.6c.24-.29.68-.58.68-.88a9.75,9.75,0,0,0-.31-1.91,7,7,0,0,0,.33-.81,9.4,9.4,0,0,0,.16-1h.22l.14.59,0,.07,0-.07a5.54,5.54,0,0,0,.87.1c.5,0,.78-.27.69-.81a1,1,0,0,1,0-.16h.16l.36.19,0,.53a3.3,3.3,0,0,1,.45.35c.07.07.06.22.09.33-.23,0-.45,0-.68-.08a1.88,1.88,0,0,0-1.76,1.11c-.27.72.21,1,.71,1.27-.24.24-.43.57-.72.71A8.62,8.62,0,0,1,158.12,84.6Z"/><path class="cls-22" d="M156.92,76.31c.11-.58,0-1.33,1-1.06a2.37,2.37,0,0,0,.67-.19,2,2,0,0,1,2.43,0l.88.51.71.44c.55-.47.55-.47.84.09-.51,0-.55.34-.43.74a.7.7,0,0,0,0,.16l-2-1.09-.62-.89-.27.54a3.34,3.34,0,0,0-.55-.34c-.16-.06-.49-.09-.5,0-.23.65-.68.45-1.18.45C157.61,75.66,157.27,76.08,156.92,76.31Z"/><path class="cls-38" d="M160.22,83.45c-.5-.27-1-.55-.71-1.27a1.88,1.88,0,0,1,1.76-1.11c.22,0,.45.05.68.08v1a5.47,5.47,0,0,1-.43.55,6.94,6.94,0,0,1-.59.48Zm1.17-1.07.28-.37c-.23-.16-.45-.33-.69-.47a1.23,1.23,0,0,0-.22.27C161,82,161.17,82.19,161.38,82.38Z"/><path class="cls-38" d="M160.89,79.76a1,1,0,0,0,0,.16c-.6.34-.62-.15-.67-.5-.08-.54-.07-1.09-.16-1.62s-.38-.5-.74,0c0-.59,0-1.07,0-1.55l1,.71Z"/><path class="cls-26" d="M160.37,77l-1-.71.86-.69.27-.54.62.89.32.71-.37.19Z"/><path class="cls-26" d="M157.79,77.16l-.55-.21.36-.68.31.08Z"/><path class="cls-33" d="M161.94,82.17v-1c0-.11,0-.25-.09-.33a3.31,3.31,0,0,0-.45-.36l1-.8,0,.11.53-.17.48-.21a8.1,8.1,0,0,1-.26,1.2c-.21.55-.49,1.06-.74,1.59l-.09.07Z"/><path class="cls-33" d="M164.53,81.15l-1.43,1.56-.66-.17-.08-.28.09-.07c.45-.3.88-.64,1.35-.9A2.29,2.29,0,0,1,164.53,81.15Z"/><path class="cls-38" d="M162.45,82.54l.66.17a.53.53,0,0,1,0,.17L162.66,84l-.61-.51Z"/><path class="cls-35" d="M172.67,88.42l-.7,1.42c-.53-.13-1,.64-1.53.18l-.71.13V89.8c.48-.23,1-.45,1.42-.7a2.5,2.5,0,0,0,.55-.48c.16-.17.3-.36.45-.55Z"/><path class="cls-14" d="M169.2,88.22l-1.12.41-.76.95c-.39-.81.22-1.36.51-2l1.36.31Z"/><path class="cls-37" d="M167.83,87.59c-.29.63-.91,1.18-.51,2l-.19.75c-.5-.59-.94-1.19-.27-2,.07-.08,0-.32-.07-.48l.52-.34Z"/><path class="cls-16" d="M169.91,86.06c.74-.16.93,0,.83.75,0,.09.14.21.22.31l.15.24-.81.19c-.14-.23-.22-.57-.43-.67C169.23,86.55,169.38,86.32,169.91,86.06Z"/><path class="cls-23" d="M170.3,87.56l.81-.19a4.42,4.42,0,0,1-.73.84,5,5,0,0,1-1.1.44l-.09-.42v-.32l.2-.21Z"/><path class="cls-31" d="M172.49,85.3l-.34,2.09-.36-.18c.07-.53.1-1.06.21-1.58a2.71,2.71,0,0,1,.37-.69l.13.13Z"/><path class="cls-23" d="M172.67,88.42l-.52-.35q0-.08,0-.17a5.32,5.32,0,0,1,.91-.43c.13,0,.31.16.47.25l-.17.17Z"/><path class="cls-30" d="M167,83.32h.3l.72.09c.12.27.55.56,0,.81-.48-.07-.89-.08-1.1.53-.07.2-.51.27-.78.4l-.2-.37.06-.84c.15-.43.29-.86-.38-1l.87-.18Z"/><path class="cls-31" d="M165.22,85.88l-.51.29-.62-1.39h1.13Z"/><path class="cls-31" d="M165.56,83c.67.1.53.53.38,1l-.72.12-.35-.55Z"/><path class="cls-32" d="M165.22,85.88v-1.1l.66,0,.2.37a.86.86,0,0,1,0,.15l-.4.56Z"/><path class="cls-30" d="M164.32,82.51l.06-.27.4-.08,0,0,.42.26Z"/><path class="cls-37" d="M167,83.32l-.55-.54a.09.09,0,0,1,.12.08Z"/><path class="cls-30" d="M163.47,83.44l.38,0-.23.28Z"/><path class="cls-15" d="M169.39,87.69l-.2.21-1.36-.31-.53,0v-.64l.14-.39-.15-.39.08-.81,1.14.32C168,86.63,168,86.63,169.39,87.69Z"/><path class="cls-14" d="M167.44,86.53l-.14.39-1.61-1.07.4-.56,1,.88Z"/><path class="cls-18" d="M165.58,86.46a1.71,1.71,0,0,1,.3.45c0,.07-.15.18-.23.26a1.37,1.37,0,0,1-.3-.35C165.32,86.77,165.46,86.63,165.58,86.46Z"/><path class="cls-25" d="M170.44,90c.57.47,1-.3,1.53-.18a.75.75,0,0,1,0,.12,6.1,6.1,0,0,1-.88,1c-.18.13-.54,0-.81,0Z"/><path class="cls-18" d="M145.64,82.53l.71-.69c.58.43.28.94.14,1.45a8.35,8.35,0,0,0-.3,1.3,1.91,1.91,0,0,0,.2.68L147,85l.17.69-.6.05.09,1.3-.16.06-.38-1.13-1-.28a10.15,10.15,0,0,1-.11-1.91A4,4,0,0,1,145.64,82.53Z"/><path class="cls-12" d="M145.64,82.53a4,4,0,0,0-.61,1.21,10.15,10.15,0,0,0,.11,1.91l.15,1.56-.3.51-.23-.86-.3-1.73.3-1.91,1.06-1.94Z"/><path class="cls-30" d="M146,90.39c-.73-.37.06-.85-.1-1.26h.48Z"/><path class="cls-18" d="M148.77,85.82h-.18v-.34l.12-.38.23.19Z"/><path class="cls-13" d="M147,85l-.65.31a1.91,1.91,0,0,1-.2-.68,8.35,8.35,0,0,1,.3-1.3c.14-.5.44-1-.14-1.45-.12-1.15.95-.68,1.43-1a15.65,15.65,0,0,1,2.28-.8c.2-.08.3-.43.45-.65l.35,1v.34c-.55,0-.52.33-.51.69-.78.05-1.56.07-2.33.18-.27,0-.51.3-.76.46l.84.57h0l.87.52.35.17c.22.11.26.9.69.18l.52.17.17.17.34.17.18.36-.67.75h0l-.34-.1a2.33,2.33,0,0,0-2.88-.57C147.15,84.6,147.12,84.81,147,85Z"/><path class="cls-12" d="M149.29,83.4l-.35-.17-.87-.52h0c-.2-.4-.3-.74.38-.67s1.26.11,1.88.19c.31,0,.77,1.36.68,1.86l-.34-.17-.17-.17-.52-.17Z"/><path class="cls-35" d="M150.33,81.49c0-.37,0-.74.51-.69l.53,1.39c-.17,0-.38,0-.5-.08A4.1,4.1,0,0,1,150.33,81.49Z"/><path class="cls-18" d="M148.77,86.33h0v-.51l.35.19Z"/><path class="cls-13" d="M146.79,93l-.92-.69.09.82a2.1,2.1,0,0,1-.4-2.33l.15,1.1.2-.19,1.11,1Z"/><path class="cls-12" d="M166.25,78.51l-.48.41a1.65,1.65,0,0,0,0-1.41c0-.18-.07-.37-.11-.55-.17-.73-.9-1.4-.23-2.22h.34c-.36.8.13,1.44.45,2.07A1.6,1.6,0,0,1,166.25,78.51Z"/><path class="cls-20" d="M165.74,74.74h-.34V74.5l.42-.23.48-.16.85-.23.36-.13a.16.16,0,0,1,.14-.06l.37,0c-.07.18-.1.49-.22.52C167.11,74.43,166.43,74.58,165.74,74.74Z"/><path class="cls-19" d="M161.93,75.61l-.88-.51.19-.36a1.14,1.14,0,0,0,0-1.91,1.51,1.51,0,0,0,.46-1.73h-1s0-.1,0-.15l.36-.37h.31l.53.2.36.15c.11.61.5,1.41.25,1.8-.4.64,0,1,.07,1.5l1.11-.08c-.16-.44-.3-.75-.39-1.07-.24-.83-.46-1.67-.69-2.51l.54.19.34.5v.35q0,.26,0,.52l.16.34.7,1.81c-.81.16-1.33,1.08-2.28.88A3.9,3.9,0,0,0,161.93,75.61Z"/><path class="cls-25" d="M164.36,74.3l-.7-1.81c1.2.21,2.4.4,3.59.65.16,0,.25.36.37.55a.16.16,0,0,0-.14.06l-.36.13-.85.23-.48.16-.42.23-.33-.07-.31-.12Z"/><path class="cls-24" d="M163.51,71.27l-.34-.5.16-1.58.15-.54h0l.55.53.52.7q0,.08,0,.16l.11,1.41Z"/><path class="cls-11" d="M165.72,70.95a13.93,13.93,0,0,0,1.92.31,1.15,1.15,0,0,0,1.23-1c.08.28.33.69.22.81a3.24,3.24,0,0,1-1.13.9A2.34,2.34,0,0,1,165.72,70.95Z"/><path class="cls-11" d="M168.72,70.2a2,2,0,0,1-2.1-.48l.4-.55.66,0q0,.25,0,.5a5.11,5.11,0,0,0,.46.27C168.32,70.07,168.52,70.13,168.72,70.2Z"/><path class="cls-11" d="M163.5,72.14q0-.26,0-.52Q163.5,71.88,163.5,72.14Z"/><path class="cls-19" d="M167.13,86.17l-1-.88a.86.86,0,0,0,0-.15c.27-.13.71-.2.78-.4.21-.61.62-.6,1.1-.53l.57.42,0,1-1.14-.32-.08.81Z"/><path class="cls-23" d="M172.49,85.3l0-.23.16.24Z"/><path class="cls-37" d="M168,83.4l-.72-.09Z"/><path class="cls-13" d="M165.75,77.51a1.65,1.65,0,0,1,0,1.41l0,0-.38.37-.26.32-.06.17-.21.45-.2.75-.09.17h0a2.29,2.29,0,0,0-.73.13c-.47.27-.9.6-1.35.9.25-.53.53-1,.74-1.59a8.1,8.1,0,0,0,.26-1.2l0-.33.37-.86c1-.06.31-.67.35-1,.32,0,.63.07.94.14A5.09,5.09,0,0,1,165.75,77.51Z"/><path class="cls-13" d="M164.78,82.15l-.4.08.12-.29.3.22Z"/><polygon class="cls-36" points="164.78 82.15 164.79 82.17 164.79 82.13 164.75 82.13 164.78 82.15"/><path class="cls-12" d="M165.38,79.27l.38-.37Z"/><path class="cls-12" d="M165.06,79.76l.06-.17Z"/><path class="cls-34" d="M167,68.35l-.3-.51c1-.69,1-.69,1.87.56l-.73.11Z"/><path class="cls-20" d="M167,68.35l.84.17-.13.69-.66,0Z"/><path class="cls-11" d="M163,69.13l.35-.44.14,0-.15.54Z"/><path class="cls-37" d="M164.54,69.89l-.52-.7Z"/><path class="cls-17" d="M160.72,71s0,.1,0,.15L160,72.31a5.14,5.14,0,0,0-.83.59c-.36.38-.21.6.26.81a18.41,18.41,0,0,1,1.78,1l-.19.36a2,2,0,0,0-2.43,0,2.37,2.37,0,0,1-.67.19v-.34l.6-.08a7.13,7.13,0,0,1-.07-1.18c.08-.68.22-1.36.33-2l-.87-.69v-.2a.86.86,0,0,0,0-.13Z"/><path class="cls-12" d="M158.82,71.62c-.12.68-.26,1.35-.33,2a7.13,7.13,0,0,0,.07,1.18l-.6.08-.16,0c.18-1-.1-2.06.52-3C158.41,71.77,158.64,71.72,158.82,71.62Z"/><path class="cls-35" d="M150.85,80.45l-.35-1q0-.69,0-1.38l.18-.18A1.75,1.75,0,0,1,150.85,80.45Z"/><path class="cls-19" d="M146.32,80.26l.22-.67L147.71,78h.19C147.41,78.8,147.24,79.8,146.32,80.26Z"/><path class="cls-12" d="M147.9,78h-.19l.36-.89v.72Z"/><path class="cls-12" d="M145.85,81.14l.15-.2Z"/><path class="cls-12" d="M146,80.79l.15-.2Z"/><path class="cls-12" d="M146.19,80.45l.14-.2Z"/><path class="cls-12" d="M148.1,77l.3-1,.89-1.59Z"/><path class="cls-12" d="M154.34,70.4h-.22l.18-.14A.72.72,0,0,0,154.34,70.4Z"/><path class="cls-12" d="M154.68,70.4h-.22l.14-.13Z"/><path class="cls-17" d="M157.08,70.61l.53.12-.53.2Z"/><path class="cls-33" d="M156.74,83.75l0-.39.12,0-.15.35Z"/><path class="cls-34" d="M163,79.61l-.53.17,0-.11-1,.8,0-.53.49-1.54.35-.54Z"/><path class="cls-34" d="M160.37,77l.65-.14q0,1.45,0,2.91h-.16Z"/><path class="cls-38" d="M161.06,79.75q0-1.45,0-2.91l.37-.19.52,1.74-.49,1.54Z"/><path class="cls-33" d="M159.33,80.62l0,.07,0-.07Z"/><path class="cls-17" d="M165.75,77.51a5.09,5.09,0,0,0-.61-.21c-.31-.06-.63-.09-.94-.14l-.53-.7-.17-.33c-.29-.56-.29-.56-.84-.09l-.71-.44a3.91,3.91,0,0,1,.14-.44c1,.2,1.48-.71,2.28-.88l.39,0,.12.32.19-.21.33.07v.24c-.67.82.06,1.49.23,2.22C165.67,77.14,165.71,77.33,165.75,77.51Z"/><path class="cls-33" d="M161.91,78.4l-.52-1.74-.32-.71L163,77l.46.64.34.52-.37.86-1.09-1.73-.12.53Z"/><path class="cls-33" d="M163.48,76.14l.17.33-.2.35-.41.06C162.93,76.48,163,76.17,163.48,76.14Z"/><path class="cls-30" d="M163,76.87l.41-.06,0,.86L163,77A.72.72,0,0,1,163,76.87Z"/><path class="cls-30" d="M161.38,82.38c-.21-.19-.43-.37-.63-.57a1.23,1.23,0,0,1,.22-.27c.24.14.46.31.69.47Z"/><path class="cls-38" d="M162.27,77.86l.12-.53,1.09,1.73,0,.33-.48.21Z"/><path class="cls-18" d="M167.13,86.17l.16,0,.15.39Z"/><path class="cls-19" d="M149.29,83.4l.69.18C149.55,84.3,149.51,83.51,149.29,83.4Z"/><path class="cls-19" d="M148.08,82.71l.87.52Z"/><path class="cls-19" d="M150.51,83.74l.17.17Z"/><path class="cls-37" d="M165.81,74.27l.48-.16Z"/><path class="cls-37" d="M167.13,73.88l.36-.13Z"/><path class="cls-35" d="M161.24,74.74a18.41,18.41,0,0,0-1.78-1c-.47-.21-.62-.43-.26-.81a5.14,5.14,0,0,1,.83-.59l1.21.52A1.14,1.14,0,0,1,161.24,74.74Z"/><path class="cls-15" d="M162.63,70.58c.23.84.45,1.67.69,2.51.09.32.23.63.39,1.07l-1.11.08c-.12-.51-.47-.86-.07-1.5.25-.39-.15-1.19-.25-1.8Z"/><path class="cls-13" d="M161.24,72.83,160,72.31l.69-1.21h1A1.51,1.51,0,0,1,161.24,72.83Z"/><path class="cls-12" d="M162.63,70.58l-.35.35-.36-.15-.53-.2.2-.37,1.4-1.08.34.07-.16,1.58Z"/><path class="cls-37" d="M165.06,74.43l-.19.21-.12-.32Z"/><path class="cls-20" d="M163.49,77.68l0-.86.2-.35.53.7c0,.37.61,1-.35,1Z"/><rect class="cls-1" x="144.23" y="93.14" width="37.38" height="13.44"/><rect class="cls-1" x="145.4" y="106.21" width="19.41" height="0.69"/><path class="cls-39" d="M185.28,93H180c0-5.27-5.87-11.16-13.73-11.16-6.35,0-13.72,4.87-13.72,11.16h-5.32c0-4.51,2.24-8.76,6.3-12a21,21,0,0,1,12.74-4.52C175.24,76.52,185.28,83.29,185.28,93Z"/><text class="cls-40" transform="translate(76.74 38.51)">BUS - K<tspan class="cls-41" x="63.9" y="0">N</tspan><tspan class="cls-42" x="77.98" y="0">Y</tspan></text></svg>